<?xml version="1.0" encoding="utf-8" ?>
<svg baseProfile="full" height="200mm" version="1.1" viewBox="0,0,200,200" width="200mm" xmlns="http://www.w3.org/2000/svg" xmlns:ev="http://www.w3.org/2001/xml-events" xmlns:xlink="http://www.w3.org/1999/xlink"><defs /><rect fill="#1a1a1a" height="200" width="200" x="0" y="0" /><text alignment-baseline="middle" fill="#e1ed5e" style="dominant-baseline: central; font-size:9.0px; font-family:Arial;" text-anchor="middle" x="100.0" y="100.0">2021</text><line stroke="#e1ed5e" stroke-width="0.3" x1="100.0" x2="100.0" y1="15.0" y2="10.0" /><path d="M 100.0 14.0 a86.0,86.0 0 0,1 42.46469731375804,11.215312516191453" fill="none" id="id49" stroke="none" /><text fill="#e1ed5e" style="font-size:6.75px; font-family:Arial;" text-anchor="middle"><textPath startOffset="22.20632615414155" xlink:href="#id49">January</textPath></text><line stroke="#e1ed5e" stroke-width="0.3" x1="143.23703022742887" x2="145.7803849466894" y1="26.81831364943548" y2="22.513508569990506" /><path d="M 143.74570117128098 25.957352633546492 a86.0,86.0 0 0,1 28.547481713284135,27.462654790039103" fill="none" id="id50" stroke="none" /><text fill="#e1ed5e" style="font-size:6.75px; font-family:Arial;" text-anchor="middle"><textPath startOffset="19.985693538727396" xlink:href="#id50">February</textPath></text><path d="M 115.68641384162765 86.03803664274999 l 12.835712093646798 -11.424647068798235 a38.18365693319064,38.18365693319064 0 0,0 0.4327629061167371,0.4947228123240301 l -13.030466863341383 11.202008700271255" fill="red" stroke="none" /><path d="M 116.38621287248628 86.86637796730983 l 21.697139533496973 -17.390353222004215 a48.80629873108087,48.80629873108087 0 0,0 0.5197775977389633,0.6600647648870066 l -21.9932712118299 17.01429606316417" fill="red" stroke="none" /><path d="M 116.60985879189232 87.15038557335679 l 38.47336944963788 -29.763525946587464 a69.64224124751567,69.64224124751567 0 0,0 0.7253539875023012,0.9544808225143262 l -38.979999377364294 29.096860348192106" fill="red" stroke="none" /><path d="M 116.82858285166822 87.43820079747576 l 14.89642175678932 -11.11952566620018 a39.5889007796973,39.5889007796973 0 0,0 0.40293467743379807,0.5496024471926023 l -15.085619046736744 10.861460775336084" fill="red" stroke="none" /><path d="M 117.04232023915458 87.72973835380427 l 23.007523142004978 -16.565134607358427 a49.35048157774041,49.35048157774041 0 0,0 0.4904201291369231,0.6936644932196669 l -23.289255890945782 16.16664361380697" fill="red" stroke="none" /><line stroke="#e1ed5e" stroke-width="0.3" x1="172.23445277983987" x2="176.4835382374775" y1="55.19839476539836" y2="52.563006222186495" /><path d="M 173.08426987136738 54.67131705675599 a86.0,86.0 0 0,1 12.851231095245387,41.99856678651699" fill="none" id="id51" stroke="none" /><text fill="#e1ed5e" style="font-size:6.75px; font-family:Arial;" text-anchor="middle"><textPath startOffset="22.20632615414155" xlink:href="#id51">March</textPath></text><path d="M 117.84615892207809 88.93136811851018 l 24.949699568695188 -15.474424568639622 a50.35890536615196,50.35890536615196 0 0,0 0.450554415899955,0.740592994432503 l -25.212369782881364 15.042663801000037" fill="red" stroke="none" /><path d="M 118.03404312379186 89.2402003453031 l 50.41812258005764 -30.081379655329656 a79.71010548845743,79.71010548845743 0 0,0 0.6928718382794081,1.1843425693257847 l -50.92845409280738 29.209057673649973" fill="red" stroke="none" /><path d="M 118.21658344932153 89.55222093294921 l 34.24862507665135 -19.642655229317207 a60.481669469500076,60.481669469500076 0 0,0 0.5101840756380327,0.9075605426910857 l -34.58166679358182 19.050211176691327" fill="red" stroke="none" /><path d="M 118.89224826269711 90.83032412892265 l 15.070763218151235 -7.314852733174506 a37.752163277786266,37.752163277786266 0 0,0 0.27872207528423376,0.5870597735398945 l -15.194443487277224 7.0543505439940715" fill="red" stroke="none" /><path d="M 119.196687751892 91.48605970444005 l 12.711018853725651 -5.637475434046733 a34.905075676502065,34.905075676502065 0 0,0 0.23886588801702963,0.5513354028650047 l -12.80617545158536 5.417840886595125" fill="red" stroke="none" /><path d="M 119.34039704204932 91.81776055985345 l 27.602865394641086 -11.677798206626525 a50.97147225194925,50.97147225194925 0 0,0 0.3349027503929026,0.8109935743242898 l -27.799789831920183 11.200930061848931" fill="red" stroke="none" /><path d="M 119.47837535516314 92.15188598940014 l 34.12661390768528 -13.750097318678225 a57.79253936706925,57.79253936706925 0 0,0 0.36383554633534787,0.9259217799833336 l -34.35824300390233 13.160626533799109" fill="red" stroke="none" /><path d="M 119.85752413597 93.16781622104841 l 15.233310596158114 -5.241175931206734 a37.10973857208378,37.10973857208378 0 0,0 0.20262395486177406,0.6058198345729333 l -15.321271844791658 4.978182993711487" fill="red" stroke="none" /><path d="M 119.97218684219823 93.5106431181261 l 27.601372906090052 -8.968229700257952 a50.02180094786729,50.02180094786729 0 0,0 0.2590284069104245,0.8211908358013351 l -27.751656796768682 8.491788698030197" fill="red" stroke="none" /><path d="M 120.08093135843002 93.85539295169968 l 51.327486834060764 -15.705807252795134 a74.67665494572695,74.67665494572695 0 0,0 0.3655390358021411,1.232415909536113 l -51.59023176697461 14.819961956512492" fill="red" stroke="none" /><path d="M 120.18372546131832 94.20196356495316 l 49.20743513018667 -14.135472775172767 a72.19749273811345,72.19749273811345 0 0,0 0.33284154423753864,1.197408125817963 l -49.44346344499057 13.28635334593585" fill="red" stroke="none" /><path d="M 120.28053869075195 94.5502522615342 l 22.948851119625385 -6.166771573311181 a44.762972022626506,44.762972022626506 0 0,0 0.19355438362102395,0.7458439958939914 l -23.05160183511671 5.77083115186834" fill="red" stroke="none" /><path d="M 120.37134235888165 94.90015583598534 l 23.927061908053822 -5.9899973641454425 a45.6654487081486,45.6654487081486 0 0,0 0.1843301053249018,0.7641672894734911 l -24.026624813639543 5.5772448430125445" fill="red" stroke="none" /><path d="M 120.6074358757038 95.95851677861258 l 23.840481387956856 -4.675540717456499 a45.294633848035474,45.294633848035474 0 0,0 0.1434637991033364,0.7663893514053925 l -23.91743091097005 4.264473288588545" fill="red" stroke="none" /><path d="M 120.67395015179393 96.31383870115 l 14.572906583836772 -2.598346415014167 a35.80273658462009,35.80273658462009 0 0,0 0.10295526737271503,0.6076478159972896 l -14.61547371272971 2.3471128107010393" fill="red" stroke="none" /><path d="M 120.73433829027371 96.67025291283417 l 62.20301487082114 -9.98924126149749 a84.0,84.0 0 0,0 0.21697642624280045,1.4296035504316715 l -62.36574719050324 8.917038598673738" fill="red" stroke="none" /><path d="M 120.78858239683441 97.02765380044208 l 27.774257998155626 -3.971156312174988 a49.05671915609234,49.05671915609234 0 0,0 0.11232587286290521,0.8369582224815668 l -27.83849987007637 3.492479747628757" fill="red" stroke="none" /><path d="M 120.96714384426684 98.82574320788733 l 28.05513474297391 -1.5712169845480046 a49.09909799724813,49.09909799724813 0 0,0 0.03999563836775596,0.8442447124588198 l -28.07802398957516 1.0880611654661851" fill="red" stroke="none" /><path d="M 120.98425023603335 99.18683210126433 l 14.351802760421775 -0.5561516452811323 a35.3625745298884,35.3625745298884 0 0,0 0.018335167443640405,0.6084549448360503 l -14.359249622321059 0.3090265530200828" fill="red" stroke="none" /><line stroke="#e1ed5e" stroke-width="0.3" x1="184.98032266829074" x2="189.97916517819016" y1="98.17113171792111" y2="98.06355123074" /><path d="M 185.9800911702706 98.14961562048488 a86.0,86.0 0 0,1 -9.607161424134198,41.387399972396054" fill="none" id="id52" stroke="none" /><text fill="#e1ed5e" style="font-size:6.75px; font-family:Arial;" text-anchor="middle"><textPath startOffset="21.466115282336823" xlink:href="#id52">April</textPath></text><path d="M 120.9764740272857 100.99374915477107 l 41.704090940289596 1.975708837838989 a62.750863782296285,62.750863782296285 0 0,0 -0.06040114009522776,1.0785029315911354 l -41.66390344930684 -2.693283485765548" fill="red" stroke="none" /><path d="M 120.92983693683757 101.71520430193887 l 12.828604532513257 1.0513066942873142 a33.87160984558936,33.87160984558936 0 0,0 -0.05262261647417823,0.58068618782065 l -12.808607319762004 -1.2719742706565345" fill="red" stroke="none" /><path d="M 120.89721153311464 102.0752229133903 l 25.22617065669978 2.505115444753067 a46.35025225500688,46.35025225500688 0 0,0 -0.08567667225643082,0.7932595781912959 l -25.1793116829423 -2.938971344829154" fill="red" stroke="none" /><path d="M 120.70491114924044 103.5080841355445 l 23.931408005137207 4.054757451453459 a45.27248127197676,45.27248127197676 0 0,0 -0.1367952381352084,0.7672203424989555 l -23.858066324662808 -4.466096544685633" fill="red" stroke="none" /><path d="M 120.64145759157962 103.86396538481128 l 26.309101351628094 4.924916589691431 a47.76609081180248,47.76609081180248 0 0,0 -0.15824238758417203,0.8068745251006139 l -26.220429031068257 -5.37705484185999" fill="red" stroke="none" /><path d="M 120.5718875245553 104.21870165774334 l 25.53260273514711 5.236001478070285 a47.06395046628956,47.06395046628956 0 0,0 -0.1695780501646188,0.7922121949293004 l -25.43869064625805 -5.674727492415754" fill="red" stroke="none" /><path d="M 120.49622156327973 104.57218783832717 l 11.4432275687114 2.5526942007012665 a32.72449166794068,32.72449166794068 0 0,0 -0.12737530614989576,0.5487294851722692 l -11.397591696630952 -2.7492923432221006" fill="red" stroke="none" /><path d="M 120.02730092923936 106.31721596034902 l 10.164597710577711 3.2062213033430162 a31.658278550680322,31.658278550680322 0 0,0 -0.16840357302843476,0.5182929043111079 l -10.107901886533028 -3.3807131076319195" fill="red" stroke="none" /><path d="M 119.9155931802556 106.66101706037122 l 24.772854424784228 8.285588305809261 a47.12173979513835,47.12173979513835 0 0,0 -0.2639023172293103,0.7670236638048328 l -24.62656127661169 -8.710784672703394" fill="red" stroke="none" /><path d="M 119.67450827220406 107.3425965602758 l 33.05173011745714 12.335023397482729 a56.278458951230704,56.278458951230704 0 0,0 -0.3465298418121973,0.9046800684230376 l -32.83450599605143 -12.90212703273891" fill="red" stroke="none" /><path d="M 119.41010516605496 108.01547362559984 l 21.815225214531882 9.008676709768718 a44.60212505733068,44.60212505733068 0 0,0 -0.29915074052680757,0.7071039829051863 l -21.656923492812766 -9.382855218340067" fill="red" stroke="none" /><path d="M 119.26925614724726 108.34839909993367 l 45.14856533580221 19.560601578621537 a70.20376089282985,70.20376089282985 0 0,0 -0.48995176401134416,1.1047118843573915 l -44.80517248705959 -20.334861799471618" fill="red" stroke="none" /><path d="M 119.12269723197855 108.67885076344098 l 22.69113695699811 10.29838986172199 a45.918758599602505,45.918758599602505 0 0,0 -0.33285717247922764,0.7169447371560613 l -22.510505167679053 -10.687454666156881" fill="red" stroke="none" /><path d="M 118.97047184881838 109.00673069616215 l 34.88815075037086 16.564067609908733 a59.620608469652964,59.620608469652964 0 0,0 -0.44813899455161443,0.9232990631619706 l -34.59785849920453 -17.16215562903598" fill="red" stroke="none" /><path d="M 118.81262510543309 109.33194174019688 l 11.39801762617816 5.653949719675926 a33.72328390154411,33.72328390154411 0 0,0 -0.262433519731697,0.5178062315051061 l -11.299005436660192 -5.849310162883726" fill="red" stroke="none" /><line stroke="#e1ed5e" stroke-width="0.3" x1="174.80103733775053" x2="179.2010983576182" y1="140.37084112569926" y2="142.7455964860345" /><path d="M 175.68104954172406 140.8457921977663 a86.0,86.0 0 0,1 -30.038265399797805,32.042727171017184" fill="none" id="id53" stroke="none" /><text fill="#e1ed5e" style="font-size:6.75px; font-family:Arial;" text-anchor="middle"><textPath startOffset="22.206326154141568" xlink:href="#id53">May</textPath></text><path d="M 116.71984013943494 112.70617746262583 l 11.9727960906741 9.098679806939781 a36.037746521938544,36.037746521938544 0 0,0 -0.3795858977845748,0.49066594158051524 l -11.814403375671457 -9.30342374263355" fill="red" stroke="none" /><path d="M 116.498646956653 112.99209946851258 l 10.706590236493655 8.431060176424907 a34.627686898027825,34.627686898027825 0 0,0 -0.372795226410329,0.46511936483336885 l -10.559877098028473 -8.614107374836527" fill="red" stroke="none" /><path d="M 116.27256486870786 113.27417163493432 l 9.941912702158263 8.110009494677882 a33.830194159914384,33.830194159914384 0 0,0 -0.37197748361439614,0.44807084167788813 l -9.800839218650323 -8.279941593469541" fill="red" stroke="none" /><path d="M 116.0416608686014 113.55231037782055 l 29.47756349337326 24.903224978782163 a59.58882433878612,59.58882433878612 0 0,0 -0.6686929905383826,0.7778410183477236 l -29.0445279932641 -25.406943096291414" fill="red" stroke="none" /><path d="M 114.81725581225074 114.88116024355365 l 7.023528764085523 7.053820109331614 a30.954211894205777,30.954211894205777 0 0,0 -0.38081057700180093,0.3727032995982299 l -6.901068234707927 -7.1736735118524155" fill="red" stroke="none" /><path d="M 114.55890576462653 115.13401014063108 l 17.273036583979167 17.955354272336557 a45.914905977679254,45.914905977679254 0 0,0 -0.5742952603643638,0.5430320143772939 l -16.961405489223996 -18.250020923459772" fill="red" stroke="none" /><path d="M 114.0293411484842 115.62618273729858 l 18.28039666848049 20.36110005656563 a48.363247209906746,48.363247209906746 0 0,0 -0.6242489521197314,0.550827120064553 l -17.92720536345417 -20.672750318402468" fill="red" stroke="none" /><path d="M 113.20401910651253 116.32954008644616 l 16.0634432105295 19.86581795411945 a46.54769912857361,46.54769912857361 0 0,0 -0.6273798795042784,0.49842851976711217 l -15.719105838307868 -20.139380387891688" fill="red" stroke="none" /><path d="M 112.92097659922987 116.55440617244103 l 14.84618433407309 19.020989914324694 a45.12897110533557,45.12897110533557 0 0,0 -0.6164859677508571,0.47269515176110233 l -14.516569637828738 -19.273724407913168" fill="red" stroke="none" /><path d="M 112.63410532772338 116.77436683061366 l 16.09732973570503 21.372507745961517 a47.75645925699435,47.75645925699435 0 0,0 -0.6608926104607639,0.4889125535080165 l -15.727052154825703 -21.646430248209303" fill="red" stroke="none" /><path d="M 112.34349029814194 116.9893568818739 l 13.467632962964316 18.5366065217657 a43.91250573306834,43.91250573306834 0 0,0 -0.6153452572819618,0.439032502640777 l -13.14656037783347 -18.765683286250695" fill="red" stroke="none" /><path d="M 111.45004920935366 117.60387380957326 l 14.122894361128953 21.71323857334599 a46.90214034551292,46.90214034551292 0 0,0 -0.6805683660107931,0.4343709311658552 l -13.747044193071229 -21.953123933335654" fill="red" stroke="none" /><path d="M 111.1453310114006 117.79835938074945 l 7.761689622860726 12.394906994525288 a35.62455282066962,35.62455282066962 0 0,0 -0.5225287267560184,0.32097982179772977 l -7.547181696172399 -12.526675283151395" fill="red" stroke="none" /><line stroke="#e1ed5e" stroke-width="0.3" x1="143.8653032363475" x2="146.44561519142675" y1="172.8068346515853" y2="177.08958963109032" /><path d="M 144.38136562736335 173.6633856474863 a86.0,86.0 0 0,1 -40.68145358897372,12.25698825130547" fill="none" id="id54" stroke="none" /><text fill="#e1ed5e" style="font-size:6.75px; font-family:Arial;" text-anchor="middle"><textPath startOffset="21.466115282336833" xlink:href="#id54">June</textPath></text><path d="M 110.8373102113329 117.98757091392108 l 5.82093287960188 9.661478809337853 a32.27951383580492,32.27951383580492 0 0,0 -0.47840103872792195,0.28264776618054643 l -5.653763969845577 -9.76024514781215" fill="red" stroke="none" /><path d="M 110.5260780823613 118.17145234162733 l 13.657188023478914 23.576771837286138 a48.24670539672833,48.24670539672833 0 0,0 -0.7222100634976757,0.4100897225788201 l -13.249329193060039 -23.808364725659587" fill="red" stroke="none" /><path d="M 110.21172684928248 118.3499491758327 l 13.059644922736261 23.467511824747845 a47.85662742699893,47.85662742699893 0 0,0 -0.7232667545824107,0.39438270245199647 l -12.6537553562852 -23.688835178959614" fill="red" stroke="none" /><path d="M 108.92500713936063 119.00905698771935 l 11.639622902051038 24.79082107227334 a48.387326096927076,48.387326096927076 0 0,0 -0.7569897724799477,0.3474968765418129 l -11.211165133803672 -24.987505019149225" fill="red" stroke="none" /><path d="M 107.93186726928326 119.44442032107085 l 5.187666744839289 12.717203811885197 a34.7345971563981,34.7345971563981 0 0,0 -0.5555532912862022,0.2210661199160282 l -4.967992377511221 -12.804616776207293" fill="red" stroke="none" /><path d="M 107.59598834532513 119.57807347666477 l 9.906720283794467 25.533806637323323 a48.38828925240789,48.38828925240789 0 0,0 -0.7791200744145069,0.2945965454888978 l -9.465729988619685 -25.700551432918854" fill="red" stroke="none" /><path d="M 106.91757812671514 119.82793768551818 l 9.39568072058747 26.930953063091373 a49.522886408805995,49.522886408805995 0 0,0 -0.8072944252402824,0.27387810036677457 l -8.93071656240996 -27.08869415035627" fill="red" stroke="none" /><path d="M 106.2309692047433 120.05430185196036 l 7.820957081159304 25.171659323464254 a47.358676043418434,47.358676043418434 0 0,0 -0.7805725217144915,0.23518009765854322 l -7.386509585004567 -25.302554790228527" fill="red" stroke="none" /><path d="M 105.88484417918355 120.15858648285463 l 6.48772356833978 22.223755234140498 a44.15136829231004,44.15136829231004 0 0,0 -0.7313754721156781,0.20669401393202144 l -6.104216928119496 -22.33213804141104" fill="red" stroke="none" /><path d="M 105.18746579009965 120.34920634021253 l 6.903984817173755 27.0827061418875 a48.94884574224125,48.94884574224125 0 0,0 -0.8182538815916688,0.2011068960772013 l -6.436777650838875 -27.197534296278732" fill="red" stroke="none" /><path d="M 104.13013068566511 120.58985236759428 l 4.414586254216111 22.007942643026347 a43.44633848035468,43.44633848035468 0 0,0 -0.7345170089907369,0.14077193293829002 l -4.03510163065367 -22.080671774313107" fill="red" stroke="none" /><path d="M 103.7750983002368 120.6578951692458 l 4.623788416503165 25.30205276691832 a46.72106711512001,46.72106711512001 0 0,0 -0.7923693384273036,0.13776356613255733 l -4.187570106603811 -25.377894911571882" fill="red" stroke="none" /><path d="M 103.41894727170886 120.7198165907248 l 4.040797381654134 24.488409435547503 a45.81955358507874,45.81955358507874 0 0,0 -0.7792905374313295,0.12170915502741333 l -3.618670980614287 -24.55433689792202" fill="red" stroke="none" /><path d="M 102.34483914955558 120.86867818915974 l 2.1883253485013197 19.475731407721558 a40.598287723589664,40.598287723589664 0 0,0 -0.6951343285252274,0.07205351538442939 l -1.8527584233704895 -19.510514291561744" fill="red" stroke="none" /><path d="M 101.62511606390274 120.93702456842531 l 0.9843865397934592 12.682248133704014 a33.72039443510167,33.72039443510167 0 0,0 -0.5790871406914565,0.039937239674515415 l -0.7659366383230725 -12.697313717894815" fill="red" stroke="none" /><path d="M 101.26447882468166 120.96189622390904 l 0.7257462778810426 12.031058065096973 a33.05292768689803,33.05292768689803 0 0,0 -0.568214346135078,0.029370191319642115 l -0.518543863332485 -12.041768063178818" fill="red" stroke="none" /><path d="M 100.90346689309514 120.98055641714683 l 0.5334197820584207 12.387220734960911 a33.39870050451001,33.39870050451001 0 0,0 -0.5745843225139519,0.019789845842101965 l -0.3201151078698165 -12.394567379229107" fill="red" stroke="none" /><line stroke="#e1ed5e" stroke-width="0.3" x1="102.19456741930631" x2="102.32365962044197" y1="184.97166512339345" y2="189.96999836594603" /><path d="M 102.22038585953345 185.97133177190398 a86.0,86.0 0 0,1 -42.740103519485714,-10.115201625700543" fill="none" id="id55" stroke="none" /><text fill="#e1ed5e" style="font-size:6.75px; font-family:Arial;" text-anchor="middle"><textPath startOffset="22.20632615414155" xlink:href="#id55">July</textPath></text><path d="M 98.73552117531835 120.96189622390904 l -1.5212602377415223 25.21868979587332 a46.2645314172145,46.2645314172145 0 0,0 -0.7945101373409853,-0.05479407078687907 l 1.9551331358614377 -25.188767380570155" fill="red" stroke="none" /><path d="M 98.01472825383883 120.90594882070398 l -1.4062316242644801 14.80835378016904 a35.87497324568109,35.87497324568109 0 0,0 -0.6142605227044456,-0.06367061473805816 l 1.6609247435745191 -14.781953796975221" fill="red" stroke="none" /><line stroke="#e1ed5e" stroke-width="0.3" x1="58.666819895761336" x2="56.23545636021788" y1="174.27360380694188" y2="178.64263932499728" /><path d="M 58.180547188652646 175.14741091055294 a86.0,86.0 0 0,1 -31.652253787137756,-30.449443065178592" fill="none" id="id56" stroke="none" /><text fill="#e1ed5e" style="font-size:6.75px; font-family:Arial;" text-anchor="middle"><textPath startOffset="22.20632615414155" xlink:href="#id56">August</textPath></text><path d="M 86.51685102203217 116.09983520530335 l -7.092412580414911 8.46884314185709 a32.0464302094481,32.0464302094481 0 0,0 -0.41986091919443425,-0.35781458402561767 l 7.237138976186402 -8.345504167608519" fill="red" stroke="none" /><path d="M 84.19399662182784 113.82643327865904 l -7.849598130814013 6.866501431340161 a31.42904754624675,31.42904754624675 0 0,0 -0.3526900224442468,-0.41025817542701654 l 7.966630662829039 -6.730366156751615" fill="red" stroke="none" /><line stroke="#e1ed5e" stroke-width="0.3" x1="26.63291911575756" x2="22.317208475507996" y1="142.92168965132927" y2="145.44649492493687" /><path d="M 25.769776987707644 143.4266507060508 a86.0,86.0 0 0,1 -11.730757126820373,-40.83630448921669" fill="none" id="id57" stroke="none" /><text fill="#e1ed5e" style="font-size:6.75px; font-family:Arial;" text-anchor="middle"><textPath startOffset="21.46611528233685" xlink:href="#id57">September</textPath></text><path d="M 80.87730276802145 108.67885076344099 l -31.141550708570342 14.133616605603088 a55.198761657238954,55.198761657238954 0 0,0 -0.38523193488864577,-0.868596314913229 l 31.38022372819027 -13.595471954197164" fill="red" stroke="none" /><path d="M 80.73074385275274 108.34839909993369 l -12.619433199505137 5.467365421859952 a34.75289711053356,34.75289711053356 0 0,0 -0.2330910218449226,-0.5509583216666459 l 12.711675202542366 -5.2493325745271475" fill="red" stroke="none" /><path d="M 79.23777060512086 103.15116336523772 l -24.52044367458208 3.721561993037977 a45.80125363094328,45.80125363094328 0 0,0 -0.11159355269793586,-0.7804850476574843 l 24.580871278296616 -3.298931473400092" fill="red" stroke="none" /><path d="M 79.18660465613746 102.79330883721812 l -12.105243832236088 1.624611651036371 a33.21377465219385,33.21377465219385 0 0,0 -0.07116998721733404,-0.5672948228971826 l 12.13141532870027 -1.4159990738517798" fill="red" stroke="none" /><path d="M 79.1416061653843 102.43462659150553 l -10.58736483264143 1.2357749191954623 a31.65924170616114,31.65924170616114 0 0,0 -0.058520899964527945,-0.5418308531206201 l 10.60706803410701 -1.0533477441900603" fill="red" stroke="none" /><path d="M 79.10278846688536 102.07522291339032 l -13.41625899895454 1.332317856977723 a34.48225042042501,34.48225042042501 0 0,0 -0.05357130196387403,-0.5911548531467634 l 13.437204897195489 -1.1011816152823932" fill="red" stroke="none" /><path d="M 79.07016306316243 101.71520430193888 l -32.04175326928763 2.625828056616017 a53.14916679406819,53.14916679406819 0 0,0 -0.06687542337250078,-0.9124620191464725 l 32.08220525132447 -2.0738929009727842" fill="red" stroke="none" /><path d="M 79.04373962182676 101.35467743843564 l -10.672602747557052 0.6899100264358367 a31.69487845895123,31.69487845895123 0 0,0 -0.03050805484912249,-0.5447418134831513 l 10.682897153293705 -0.5060964966172478" fill="red" stroke="none" /><path d="M 79.0235259727143 100.99374915477108 l -34.38076482980043 1.628770209214154 a55.41932426234521,55.41932426234521 0 0,0 -0.03694058754764423,-0.9532724227937304 l 34.40370755019927 -1.036720539406427" fill="red" stroke="none" /><path d="M 79.0095281055655 100.63252640178507 l -23.603931657594185 0.7112803387387165 a44.61464607858126,44.61464607858126 0 0,0 -0.016524281929989667,-0.7678184503675362 l 23.612678002209183 -0.3048720725810516" fill="red" stroke="none" /><line stroke="#e1ed5e" stroke-width="0.3" x1="15.007084014347285" x2="10.007500721073583" y1="101.09737516637583" y2="101.16192664675087" /><path d="M 14.007167355692545 101.11028546245083 a86.0,86.0 0 0,1 10.666146001902534,-42.60595125391555" fill="none" id="id58" stroke="none" /><text fill="#e1ed5e" style="font-size:6.75px; font-family:Arial;" text-anchor="middle"><textPath startOffset="22.20632615414155" xlink:href="#id58">October</textPath></text><path d="M 79.26566170972629 96.67025291283419 l -35.189731880138595 -5.651152478832762 a56.640605412016505,56.640605412016505 0 0,0 0.16287717729520276,-0.9613103203446719 l 35.08724284132317 6.256048587493262" fill="red" stroke="none" /><path d="M 79.32604984820605 96.31383870115002 l -22.5226267217044 -4.015779972401025 a43.877832135759064,43.877832135759064 0 0,0 0.1389762971864107,-0.7424169367263057 l 22.450164700608127 4.402874986589903" fill="red" stroke="none" /><path d="M 79.3925641242962 95.95851677861259 l -24.609834061989407 -4.826424405373127 a46.078642409417526,46.078642409417526 0 0,0 0.15934587881205198,-0.7770270956245808 l 24.52310888726236 5.249327157161111" fill="red" stroke="none" /><path d="M 79.46518482838121 95.60439243477599 l -20.523199391747976 -4.39312113379283 a41.988121082403296,41.988121082403296 0 0,0 0.15736670516301052,-0.7054440827357847 l 20.444538299582927 4.745743386078574" fill="red" stroke="none" /><path d="M 79.81627453868168 94.20196356495316 l -20.332457393321913 -5.840761607982063 a42.15474698058401,42.15474698058401 0 0,0 0.20634568563581493,-0.6956950720288321 l 20.228905810574393 6.189886066757434" fill="red" stroke="none" /><path d="M 79.91906864156998 93.8553929516997 l -22.623513127433494 -6.922617070835439 a44.65895123069866,44.65895123069866 0 0,0 0.23125790700008111,-0.7331507621121065 l 22.500999736665207 7.311017999373959" fill="red" stroke="none" /><path d="M 80.02781315780177 93.51064311812611 l -27.846865005480478 -9.04799491861946 a50.27992661672527,50.27992661672527 0 0,0 0.27453487880144817,-0.8208243441573937 l 27.686992832907258 9.525992365699176" fill="red" stroke="none" /><path d="M 80.2630227832202 92.82701384747504 l -23.575745358529893 -8.568105092020796 a46.084421342302406,46.084421342302406 0 0,0 0.27737425710593755,-0.7432251072394783 l 23.42476651292233 8.972653336289614" fill="red" stroke="none" /><path d="M 80.65960295795068 91.81776055985345 l -11.437474979063634 -4.8387920199319465 a33.4189267696071,33.4189267696071 0 0,0 0.22869572589903192,-0.5278612664988795 l 11.35248854332192 5.034952431017426" fill="red" stroke="none" /><path d="M 80.803312248108 91.48605970444005 l -11.370977938343618 -5.043152679276411 a33.43915303470418,33.43915303470418 0 0,0 0.2378919993377482,-0.5241634867612613 l 11.282483622042518 5.238138174879744" fill="red" stroke="none" /><path d="M 80.95270993114464 91.15688171328213 l -11.593483557733347 -5.3825266526387185 a33.78203638587372,33.78203638587372 0 0,0 0.24941085414140618,-0.5253228665197412 l 11.49911450975019 5.581291934798992" fill="red" stroke="none" /><path d="M 81.10775173730289 90.83032412892265 l -19.408384138640233 -9.42019124764996 a42.573719614737804,42.573719614737804 0 0,0 0.3256686555922151,-0.6565281371031678 l 19.243355470094603 9.75287897325209" fill="red" stroke="none" /><path d="M 81.26839172434947 90.50648371742162 l -13.277648948181263 -6.72935151263945 a35.88556795597003,35.88556795597003 0 0,0 0.2839925180939956,-0.5485831519546093 l 13.159846996927152 6.956907386854395" fill="red" stroke="none" /><line stroke="#e1ed5e" stroke-width="0.3" x1="26.266209847984243" x2="21.928928074336255" y1="57.711370442889674" y2="55.22380399835377" /><path d="M 25.398753493254645 57.213857153982495 a86.0,86.0 0 0,1 29.58750427330803,-30.492523968695096" fill="none" id="id59" stroke="none" /><text fill="#e1ed5e" style="font-size:6.75px; font-family:Arial;" text-anchor="middle"><textPath startOffset="21.46611528233685" xlink:href="#id59">November</textPath></text><path d="M 81.96595687620814 89.24020034530311 l -10.324979069605282 -6.160277285869805 a33.02306986699281,33.02306986699281 0 0,0 0.2954530057189728,-0.48564705726484525 l 10.217410265600092 6.337092116341725" fill="red" stroke="none" /><path d="M 82.15384107792192 88.93136811851018 l -11.259368390098127 -6.983340475238067 a34.24916679406819,34.24916679406819 0 0,0 0.31504732743729086,-0.4983292132264626 l 11.137493466414872 7.176117336178745" fill="red" stroke="none" /><path d="M 82.54541684631803 88.32363383020206 l -11.214055992208083 -7.501721631548516 a34.49188197523314,34.49188197523314 0 0,0 0.334366823961849,-0.4906420554650076 l 11.083264702577495 7.693641710283939" fill="red" stroke="none" /><path d="M 87.22198572758235 83.33499621200491 l -14.47621451810068 -18.879785593973402 a44.790903531570095,44.790903531570095 0 0,0 0.6158831272084657,-0.4638704028171494 l 14.149085237133823 19.126172586296406" fill="red" stroke="none" /><path d="M 89.00827224532344 82.1063720568725 l -7.745966837667265 -12.60979636200064 a35.798883962696834,35.798883962696834 0 0,0 0.5278424981868373,-0.3180191990875502 l 7.527762273262779 12.74126217054681" fill="red" stroke="none" /><line stroke="#e1ed5e" stroke-width="0.3" x1="56.762969772571076" x2="54.21961505331055" y1="26.818313649435495" y2="22.513508569990535" /><path d="M 56.25429882871897 25.957352633546506 a86.0,86.0 0 0,1 42.265352541879196,-11.944610805530505" fill="none" id="id60" stroke="none" /><text fill="#e1ed5e" style="font-size:6.75px; font-family:Arial;" text-anchor="middle"><textPath startOffset="22.20632615414155" xlink:href="#id60">December</textPath></text><path d="M 90.58718382345135 81.22770947309562 l -11.957197812652543 -23.846634951399057 a47.67651735208683,47.67651735208683 0 0,0 0.7367809414108657,-0.36153520814581347 l 11.544945604231252 24.0489253196797" fill="red" stroke="none" /><path d="M 95.692805502759 79.44645832069477 l -4.816208615321924 -22.982510906961988 a44.481730622229016,44.481730622229016 0 0,0 0.7507533094072504,-0.15059405114665134 l 4.419888896447537 23.062008914185853" fill="red" stroke="none" /><path d="M 97.11714578562143 79.19881850522333 l -1.849372354220136 -13.344112164842134 a34.47165571013606,34.47165571013606 0 0,0 0.5884562312396087,-0.07639850762182354 l 1.6194013944726695 13.373968995628095" fill="red" stroke="none" /><path d="M 98.91598698831166 79.02799685794201 l -0.6765593516154212 -13.0891462509001 a34.10661978290781,34.10661978290781 0 0,0 0.5865675433718475,-0.025258832295198607 l 0.4511509758542497 13.098852809719492" fill="red" stroke="none" /></svg>