<?xml version="1.0" encoding="utf-8" ?>
<svg baseProfile="full" height="200mm" version="1.1" viewBox="0,0,200,200" width="200mm" xmlns="http://www.w3.org/2000/svg" xmlns:ev="http://www.w3.org/2001/xml-events" xmlns:xlink="http://www.w3.org/1999/xlink"><defs /><rect fill="#1a1a1a" height="200" width="200" x="0" y="0" /><text alignment-baseline="middle" fill="#e1ed5e" style="dominant-baseline: central; font-size:9.0px; font-family:Arial;" text-anchor="middle" x="100.0" y="100.0">2018</text><line stroke="#e1ed5e" stroke-width="0.3" x1="100.0" x2="100.0" y1="15.0" y2="10.0" /><path d="M 100.0 14.0 a86.0,86.0 0 0,1 42.46469731375804,11.215312516191453" fill="none" id="id13" stroke="none" /><text fill="#e1ed5e" style="font-size:6.75px; font-family:Arial;" text-anchor="middle"><textPath startOffset="22.20632615414155" xlink:href="#id13">January</textPath></text><path d="M 101.08401301168833 79.027996857942 l 0.45198143072898583 -8.744319379189804 a29.755992726070424,29.755992726070424 0 0,0 0.5112900690485077,0.030842413237619336 l -0.6024335486171055 8.735243696571882" fill="red" stroke="none" /><path d="M 101.44485096284872 79.0497635885617 l 0.6083708716111231 -8.82133445857718 a29.842287981484546,29.842287981484546 0 0,0 0.5121644457333965,0.039753818189446025 l -0.7601255067068609 8.80955537819927" fill="red" stroke="none" /><line stroke="#e1ed5e" stroke-width="0.3" x1="143.23703022742887" x2="145.7803849466894" y1="26.81831364943548" y2="22.513508569990506" /><path d="M 143.74570117128098 25.957352633546492 a86.0,86.0 0 0,1 28.547481713284135,27.462654790039103" fill="none" id="id14" stroke="none" /><text fill="#e1ed5e" style="font-size:6.75px; font-family:Arial;" text-anchor="middle"><textPath startOffset="19.985693538727396" xlink:href="#id14">February</textPath></text><line stroke="#e1ed5e" stroke-width="0.3" x1="172.23445277983987" x2="176.4835382374775" y1="55.19839476539836" y2="52.563006222186495" /><path d="M 173.08426987136738 54.67131705675599 a86.0,86.0 0 0,1 12.851231095245387,41.99856678651699" fill="none" id="id15" stroke="none" /><text fill="#e1ed5e" style="font-size:6.75px; font-family:Arial;" text-anchor="middle"><textPath startOffset="22.20632615414155" xlink:href="#id15">March</textPath></text><path d="M 120.78858239683441 97.02765380044208 l 7.2332660523005305 -1.0342105320380397 a28.30682757480575,28.30682757480575 0 0,0 0.064814548751268,0.482943672113861 l -7.249996600109634 0.9095485178595144" fill="red" stroke="none" /><line stroke="#e1ed5e" stroke-width="0.3" x1="184.98032266829074" x2="189.97916517819016" y1="98.17113171792111" y2="98.06355123074" /><path d="M 185.9800911702706 98.14961562048488 a86.0,86.0 0 0,1 -9.607161424134198,41.387399972396054" fill="none" id="id16" stroke="none" /><text fill="#e1ed5e" style="font-size:6.75px; font-family:Arial;" text-anchor="middle"><textPath startOffset="21.466115282336823" xlink:href="#id16">April</textPath></text><path d="M 120.64145759157962 103.86396538481128 l 6.723841592722712 1.258665530375788 a27.84063481567201,27.84063481567201 0 0,0 -0.09223213476792194,0.47028966812256673 l -6.701179524979126 -1.3742189255662998" fill="red" stroke="none" /><path d="M 120.49622156327973 104.57218783832717 l 43.722497435817154 9.753381637690758 a65.79715655480246,65.79715655480246 0 0,0 -0.2561058257223033,1.1032971942994887 l -43.54813104416429 -10.504547489338812" fill="red" stroke="none" /><path d="M 119.12269723197855 108.67885076344098 l 12.585131043231375 5.71177134886073 a34.82063150934039,34.82063150934039 0 0,0 -0.252408760637542,0.5436660150757694 l -12.484947665754001 -5.92755743121533" fill="red" stroke="none" /><line stroke="#e1ed5e" stroke-width="0.3" x1="174.80103733775053" x2="179.2010983576182" y1="140.37084112569926" y2="142.7455964860345" /><path d="M 175.68104954172406 140.8457921977663 a86.0,86.0 0 0,1 -30.038265399797805,32.042727171017184" fill="none" id="id17" stroke="none" /><text fill="#e1ed5e" style="font-size:6.75px; font-family:Arial;" text-anchor="middle"><textPath startOffset="22.206326154141568" xlink:href="#id17">May</textPath></text><path d="M 116.0416608686014 113.55231037782055 l 6.9825910178587325 5.899030124781205 a30.14084972722764,30.14084972722764 0 0,0 -0.33823414314870204,0.3934427219506718 l -6.880014365139251 -6.018349945893404" fill="red" stroke="none" /><path d="M 114.0293411484842 115.62618273729858 l 3.333471914954056 3.7128929107517417 a25.98975037196231,25.98975037196231 0 0,0 -0.33546288496996385,0.2960069923851635 l -3.2690666770775043 -3.7697230449091936" fill="red" stroke="none" /><path d="M 113.48314897796784 116.09983520530334 l 5.123806773362315 6.118188326016957 a28.98032732683088,28.98032732683088 0 0,0 -0.38520357340338474,0.31699631638522635 l -5.017733071414239 -6.205479761259363" fill="red" stroke="none" /><line stroke="#e1ed5e" stroke-width="0.3" x1="143.8653032363475" x2="146.44561519142675" y1="172.8068346515853" y2="177.08958963109032" /><path d="M 144.38136562736335 173.6633856474863 a86.0,86.0 0 0,1 -40.68145358897372,12.25698825130547" fill="none" id="id18" stroke="none" /><text fill="#e1ed5e" style="font-size:6.75px; font-family:Arial;" text-anchor="middle"><textPath startOffset="21.466115282336833" xlink:href="#id18">June</textPath></text><path d="M 110.5260780823613 118.17145234162733 l 5.491618234830864 9.48032859454666 a31.956025789386675,31.956025789386675 0 0,0 -0.478353148151984,0.2716214017709872 l -5.327616319757682 -9.573453162112276" fill="red" stroke="none" /><path d="M 109.57404056367764 118.69057910512821 l 2.6400230881491633 5.153890882353091 a26.790709208133574,26.790709208133574 0 0,0 -0.41225299957218337,0.20671221221737734 l -2.5509161808942196 -5.19857093547977" fill="red" stroke="none" /><path d="M 108.59647513512805 119.15986991738527 l 2.4226374557183714 5.399587363298739 a26.918168292279717,26.918168292279717 0 0,0 -0.4243832856027149,0.1860371609330984 l -2.329333495457903 -5.4404890775262915" fill="red" stroke="none" /><path d="M 102.70371172650421 120.8252237178851 l 0.6860964622555726 5.284628600918104 a26.32897999669367,26.32897999669367 0 0,0 -0.4499404238020056,0.054481519283673105 l -0.5950286154021868 -5.295655648927128" fill="red" stroke="none" /><line stroke="#e1ed5e" stroke-width="0.3" x1="102.19456741930631" x2="102.32365962044197" y1="184.97166512339345" y2="189.96999836594603" /><path d="M 102.22038585953345 185.97133177190398 a86.0,86.0 0 0,1 -42.740103519485714,-10.115201625700543" fill="none" id="id19" stroke="none" /><text fill="#e1ed5e" style="font-size:6.75px; font-family:Arial;" text-anchor="middle"><textPath startOffset="22.20632615414155" xlink:href="#id19">July</textPath></text><path d="M 99.45781275523022 120.99299961872073 l -0.17402798204345654 6.738206027396108 a27.74045296743263,27.74045296743263 0 0,0 -0.47724100440286504,-0.016437145144058526 l 0.2899893381209646 -6.734212083825956" fill="red" stroke="none" /><path d="M 92.06813273071674 119.44442032107085 l -1.9371192270660598 4.748712905089239 a26.12861630021491,26.12861630021491 0 0,0 -0.4149828219029284,-0.17346285321152807 l 2.0185735084664507 -4.714665008857738" fill="red" stroke="none" /><line stroke="#e1ed5e" stroke-width="0.3" x1="58.666819895761336" x2="56.23545636021788" y1="174.27360380694188" y2="178.64263932499728" /><path d="M 58.180547188652646 175.14741091055294 a86.0,86.0 0 0,1 -31.652253787137756,-30.449443065178592" fill="none" id="id20" stroke="none" /><text fill="#e1ed5e" style="font-size:6.75px; font-family:Arial;" text-anchor="middle"><textPath startOffset="22.20632615414155" xlink:href="#id20">August</textPath></text><line stroke="#e1ed5e" stroke-width="0.3" x1="26.63291911575756" x2="22.317208475507996" y1="142.92168965132927" y2="145.44649492493687" /><path d="M 25.769776987707644 143.4266507060508 a86.0,86.0 0 0,1 -11.730757126820373,-40.83630448921669" fill="none" id="id21" stroke="none" /><text fill="#e1ed5e" style="font-size:6.75px; font-family:Arial;" text-anchor="middle"><textPath startOffset="21.46611528233685" xlink:href="#id21">September</textPath></text><line stroke="#e1ed5e" stroke-width="0.3" x1="15.007084014347285" x2="10.007500721073583" y1="101.09737516637583" y2="101.16192664675087" /><path d="M 14.007167355692545 101.11028546245083 a86.0,86.0 0 0,1 10.666146001902534,-42.60595125391555" fill="none" id="id22" stroke="none" /><text fill="#e1ed5e" style="font-size:6.75px; font-family:Arial;" text-anchor="middle"><textPath startOffset="22.20632615414155" xlink:href="#id22">October</textPath></text><path d="M 79.00486145842228 99.54816195383935 l -26.16471354652514 -0.5630928809449317 a47.17077202843445,47.17077202843445 0 0,0 0.024457608505176455,-0.8116289572801627 l 26.151144243564318 1.0133919856500888" fill="red" stroke="none" /><path d="M 79.01574976396665 99.18683210126434 l -62.95275070810006 -2.4395036962069616 a84.0,84.0 0 0,0 0.06842556706600478,-1.4443555735079636 l 62.90143153280056 3.522770376337934" fill="red" stroke="none" /><path d="M 79.08570108090925 98.10471618934814 l -12.340241461270189 -1.1182904075130702 a33.39080839808233,33.39080839808233 0 0,0 0.056800745322546586,-0.5719757538262008 l 12.319163590265413 1.3305416920437014" fill="red" stroke="none" /><path d="M 79.54389044137918 95.25157060432595 l -7.5997227278809785 -1.7641060582232824 a28.801785419077532,28.801785419077532 0 0,0 0.11625936654590942,-0.48197013099242353 l 7.568230561074254 1.894661420875103" fill="red" stroke="none" /><path d="M 79.81627453868168 94.20196356495316 l -5.810632533676647 -1.6691794191063705 a27.045627376425855,27.045627376425855 0 0,0 0.13238719062908355,-0.4463437936034522 l 5.781039445935857 1.768952599456362" fill="red" stroke="none" /><path d="M 79.91906864156998 93.8553929516997 l -22.677893787137553 -6.939257124971598 a44.71582079682592,44.71582079682592 0 0,0 0.23155239525992974,-0.7340843703720006 l 22.55508590810942 7.328591661770013" fill="red" stroke="none" /><path d="M 80.14247586403 93.16781622104843 l -10.152225456285064 -3.492976748145941 a31.736320052901306,31.736320052901306 0 0,0 0.18217693375291022,-0.5150387239292146 l 10.090595441722346 3.6672130985017666" fill="red" stroke="none" /><path d="M 81.10775173730289 90.83032412892265 l -19.86891811242538 -9.643719289866477 a43.08563398908911,43.08563398908911 0 0,0 0.32958455647148915,-0.6644223543242737 l 19.69997354300048 9.984301232689711" fill="red" stroke="none" /><line stroke="#e1ed5e" stroke-width="0.3" x1="26.266209847984243" x2="21.928928074336255" y1="57.711370442889674" y2="55.22380399835377" /><path d="M 25.398753493254645 57.213857153982495 a86.0,86.0 0 0,1 29.58750427330803,-30.492523968695096" fill="none" id="id23" stroke="none" /><text fill="#e1ed5e" style="font-size:6.75px; font-family:Arial;" text-anchor="middle"><textPath startOffset="21.46611528233685" xlink:href="#id23">November</textPath></text><path d="M 81.78341655067845 89.55222093294921 l -8.603864922253535 -4.934585021419093 a30.918498925442222,30.918498925442222 0 0,0 0.2687558504161491,-0.45939086685009745 l 8.517649397367062 5.081955300623083" fill="red" stroke="none" /><path d="M 83.84228863543731 86.58626213691792 l -9.373785033428959 -7.781887693517493 a33.18300545544718,33.18300545544718 0 0,0 0.368630618350223,-0.4363423800442839 l 9.238443801591613 7.942089023190893" fill="red" stroke="none" /><path d="M 85.57189188830299 84.74124197986013 l -5.7224487548789575 -6.051899539244477 a29.32897999669367,29.32897999669367 0 0,0 0.3698134609268024,-0.3437013082045101 l 5.617427410157299 6.149505433523635" fill="red" stroke="none" /><line stroke="#e1ed5e" stroke-width="0.3" x1="56.762969772571076" x2="54.21961505331055" y1="26.818313649435495" y2="22.513508569990535" /><path d="M 56.25429882871897 25.957352633546506 a86.0,86.0 0 0,1 42.265352541879196,-11.944610805530505" fill="none" id="id24" stroke="none" /><text fill="#e1ed5e" style="font-size:6.75px; font-family:Arial;" text-anchor="middle"><textPath startOffset="22.20632615414155" xlink:href="#id24">December</textPath></text></svg>