<?xml version="1.0" encoding="utf-8" ?>
<svg baseProfile="full" height="200mm" version="1.1" viewBox="0,0,200,200" width="200mm" xmlns="http://www.w3.org/2000/svg" xmlns:ev="http://www.w3.org/2001/xml-events" xmlns:xlink="http://www.w3.org/1999/xlink"><defs /><rect fill="#1a1a1a" height="200" width="200" x="0" y="0" /><text alignment-baseline="middle" fill="#e1ed5e" style="dominant-baseline: central; font-size:9.0px; font-family:Arial;" text-anchor="middle" x="100.0" y="100.0">2022</text><line stroke="#e1ed5e" stroke-width="0.3" x1="100.0" x2="100.0" y1="15.0" y2="10.0" /><path d="M 100.0 14.0 a86.0,86.0 0 0,1 42.46469731375804,11.215312516191453" fill="none" id="id61" stroke="none" /><text fill="#e1ed5e" style="font-size:6.75px; font-family:Arial;" text-anchor="middle"><textPath startOffset="22.20632615414155" xlink:href="#id61">January</textPath></text><path d="M 100.0 79.0 l 0.0 -63.0 a84.0,84.0 0 0,0 1.4459219170901134,0.012445506434235476 l -1.084441437817585 62.990665870174325" fill="red" stroke="none" /><path d="M 104.307194497241 79.44645832069477 l 2.815359905174604 -13.434642245739576 a34.72646581122305,34.72646581122305 0 0,0 0.5839954316984372,0.1276387818791264 l -3.046198061026569 13.38418996576458" fill="red" stroke="none" /><path d="M 106.74666289553966 80.11325718540242 l 1.5245526170546957 -4.493834399630738 a25.745398644315657,25.745398644315657 0 0,0 0.4184460890414253,0.145987624062215 l -1.6016807101593948 4.466925922396315" fill="red" stroke="none" /><path d="M 107.08798089147638 80.2323363322302 l 3.249622567501145 -9.062869517439815 a30.62785805469485,30.62785805469485 0 0,0 0.49473860837529754,0.18221640473549103 l -3.405143501649019 9.005589844898" fill="red" stroke="none" /><path d="M 108.09893153111575 80.62456947434976 l 1.7312520057793712 -4.141750406395852 a25.489023271981925,25.489023271981925 0 0,0 0.4033531633971541,0.17269477442404751 l -1.8022889269668405 4.111336104009014" fill="red" stroke="none" /><path d="M 110.05341064243156 81.56283822128135 l 5.869254557480283 -10.763749701024157 a33.25995337212996,33.25995337212996 0 0,0 0.5002865747068185,0.27840893717556275 l -6.053665221259137 10.661125366288413" fill="red" stroke="none" /><line stroke="#e1ed5e" stroke-width="0.3" x1="143.23703022742887" x2="145.7803849466894" y1="26.81831364943548" y2="22.513508569990506" /><path d="M 143.74570117128098 25.957352633546492 a86.0,86.0 0 0,1 28.547481713284135,27.462654790039103" fill="none" id="id62" stroke="none" /><text fill="#e1ed5e" style="font-size:6.75px; font-family:Arial;" text-anchor="middle"><textPath startOffset="19.985693538727396" xlink:href="#id62">February</textPath></text><path d="M 112.77801427241765 83.33499621200491 l 2.994297855221409 -3.9051439477073853 a25.92097235290945,25.92097235290945 0 0,0 0.35174444091388835,0.27454211541116164 l -3.0610748512947272 3.8530234430729995" fill="red" stroke="none" /><path d="M 113.06298171725822 83.55741782278167 l 5.868254059663834 -7.38646441534404 a30.43378303057182,30.43378303057182 0 0,0 0.4073729989866381,0.32940063428739874 l -5.994530457214963 7.2843576837925115" fill="red" stroke="none" /><path d="M 114.42810811169701 84.74124197986012 l 6.51990029255598 -6.895261673212509 a30.48966455502748,30.48966455502748 0 0,0 0.37824135777243717,0.36386788649684954 l -6.637624893940835 6.782010699953358" fill="red" stroke="none" /><path d="M 114.68862486808459 84.99185889309783 l 6.010387432312321 -6.141129173180223 a29.59291711866134,29.59291711866134 0 0,0 0.360983139734125,0.3594329634120426 l -6.115206372213769 6.0367603591180625" fill="red" stroke="none" /><path d="M 114.94478906791727 85.2469230424477 l 3.4491075223541556 -3.4048622888496087 a25.84658951292455,25.84658951292455 0 0,0 0.30983382103807433,0.3193109877415028 l -3.5072056070953392 3.3449871055579914" fill="red" stroke="none" /><path d="M 115.19652480421416 85.50635884689758 l 10.9363829564972 -10.430543306876299 a36.11293174231209,36.11293174231209 0 0,0 0.425156991721414,0.45352783555442727 l -11.114307270189077 10.240746054443818" fill="red" stroke="none" /><path d="M 115.4437574822437 85.77008943001954 l 7.157129612979651 -6.594594252568067 a30.732069546247295,30.732069546247295 0 0,0 0.3551110529727224,0.39212249411215894 l -7.269584306568409 6.4704189711863584" fill="red" stroke="none" /><path d="M 116.60985879189232 87.15038557335679 l 6.893888279240572 -5.33320646481571 a29.716007503610964,29.716007503610964 0 0,0 0.3095050381676427,0.4072723504558418 l -6.984669257632328 5.213749338478835" fill="red" stroke="none" /><path d="M 116.82858285166822 87.43820079747576 l 3.5129098111727304 -2.622233140692222 a25.383679046825648,25.383679046825648 0 0,0 0.2583543449648151,0.35239503618755513 l -3.557526768651172 2.561375660833173" fill="red" stroke="none" /><path d="M 117.04232023915458 87.72973835380427 l 7.381944649748096 -5.314909650743496 a30.096228416630208,30.096228416630208 0 0,0 0.29908109819288053,0.42302900326430826 l -7.472338367744859 5.1870541471473945" fill="red" stroke="none" /><path d="M 117.65298651832404 88.62581576622439 l 3.343797467900674 -2.1544778500145525 a24.977782838786236,24.977782838786236 0 0,0 0.22976277863880257,0.36342953815594603 l -3.3803878427854324 2.0966006641444004" fill="red" stroke="none" /><line stroke="#e1ed5e" stroke-width="0.3" x1="172.23445277983987" x2="176.4835382374775" y1="55.19839476539836" y2="52.563006222186495" /><path d="M 173.08426987136738 54.67131705675599 a86.0,86.0 0 0,1 12.851231095245387,41.99856678651699" fill="none" id="id63" stroke="none" /><text fill="#e1ed5e" style="font-size:6.75px; font-family:Arial;" text-anchor="middle"><textPath startOffset="22.20632615414155" xlink:href="#id63">March</textPath></text><path d="M 117.84615892207809 88.93136811851018 l 6.739277253158279 -4.179867465498325 a28.930267960420252,28.930267960420252 0 0,0 0.25883525243377103,0.4254570988539244 l -6.810228303878274 4.0632425934373195" fill="red" stroke="none" /><path d="M 118.3937258080291 89.86733742301442 l 7.499346006776047 -4.1312099260257575 a29.56195573348996,29.56195573348996 0 0,0 0.24169277955726157,0.4478200137479624 l -7.569346885551774 4.001508928945336" fill="red" stroke="none" /><path d="M 118.89224826269711 90.83032412892265 l 4.6675525770178705 -2.265476487887069 a26.188297483413542,26.188297483413542 0 0,0 0.19334671152561078,0.40723748403192583 l -4.7058574823852375 2.1847965882146028" fill="red" stroke="none" /><path d="M 119.196687751892 91.48605970444005 l 17.29672729847046 -7.67128712156321 a39.92155969625958,39.92155969625958 0 0,0 0.27319519075821475,0.6305721666993478 l -17.42621319907136 7.372415810277259" fill="red" stroke="none" /><path d="M 119.34039704204932 91.81776055985345 l 3.962131047636723 -1.6762378173787065 a25.302122227349823,25.302122227349823 0 0,0 0.16624495919661803,0.40257535512648984 l -3.9903976937195385 1.6077878917989135" fill="red" stroke="none" /><path d="M 119.47837535516314 92.15188598940014 l 4.400504390169036 -1.773025703041368 a25.744265910711825,25.744265910711825 0 0,0 0.1620741908074649,0.41246113732792994 l -4.430372130858202 1.6970155608176536" fill="red" stroke="none" /><path d="M 119.7369772167798 92.82701384747503 l 7.294684009303859 -2.651098332387848 a28.761490653449442,28.761490653449442 0 0,0 0.16510043283765657,0.46676115629544335 l -7.339237522951325 2.5251395496657905" fill="red" stroke="none" /><path d="M 119.85752413597 93.16781622104841 l 8.596719258494945 -2.957788970463754 a30.091319904346943,30.091319904346943 0 0,0 0.1643024844862772,0.491243515799013 l -8.646359036752992 2.809372351742427" fill="red" stroke="none" /><path d="M 119.97218684219823 93.5106431181261 l 4.159071781861995 -1.3513643399734518 a25.373106866523226,25.373106866523226 0 0,0 0.1313898205475083,0.41654163664183635 l -4.181717086177709 1.2795725369051965" fill="red" stroke="none" /><path d="M 120.08093135843002 93.85539295169968 l 4.347079409219446 -1.3301721070919157 a25.546037530041414,25.546037530041414 0 0,0 0.12504676239292342,0.42159551871345785 l -4.369332068724072 1.2551472016319278" fill="red" stroke="none" /><path d="M 120.18372546131832 94.20196356495316 l 8.008506652209539 -2.3005472130908133 a29.332388389780228,29.332388389780228 0 0,0 0.1352268212864924,0.48648282475645827 l -8.046920244062393 2.162353084915403" fill="red" stroke="none" /><path d="M 120.28053869075195 94.5502522615342 l 17.45431988954751 -4.6902916039353615 a39.073519804858165,39.073519804858165 0 0,0 0.16895328214378552,0.651045916481317 l -17.532469503561597 4.389149261905194" fill="red" stroke="none" /><path d="M 120.67395015179393 96.31383870115 l 3.8970655617473056 -0.6948460331635032 a24.958526367521113,24.958526367521113 0 0,0 0.07177137840633477,0.42359873809897197 l -3.908448801673863 0.6276615067486934" fill="red" stroke="none" /><path d="M 120.73433829027371 96.67025291283417 l 7.92277317180207 -1.2723256716351798 a29.024284849538216,29.024284849538216 0 0,0 0.07497125715364118,0.49396691273380955 l -7.943500322395011 1.135759646509288" fill="red" stroke="none" /><path d="M 120.78858239683441 97.02765380044208 l 5.149894007244421 -0.7363305293433544 a26.202267864527457,26.202267864527457 0 0,0 0.05999570822308413,0.44703771296041256 l -5.161805714525341 0.6475744743182775" fill="red" stroke="none" /><path d="M 120.96714384426684 98.82574320788733 l 4.745890823457933 -0.26579178239359896 a25.753327779542474,25.753327779542474 0 0,0 0.020978405442287233,0.4428209823185786 l -4.749762837133717 0.18405969345202064" fill="red" stroke="none" /><line stroke="#e1ed5e" stroke-width="0.3" x1="184.98032266829074" x2="189.97916517819016" y1="98.17113171792111" y2="98.06355123074" /><path d="M 185.9800911702706 98.14961562048488 a86.0,86.0 0 0,1 -9.607161424134198,41.387399972396054" fill="none" id="id64" stroke="none" /><text fill="#e1ed5e" style="font-size:6.75px; font-family:Arial;" text-anchor="middle"><textPath startOffset="21.466115282336823" xlink:href="#id64">April</textPath></text><path d="M 120.99980553446 99.90962569577887 l 4.700800924838515 -0.020230264140646007 a25.700844455898306,25.700844455898306 0 0,0 -0.001903946351528688,0.44241007966517215 l -4.700452681197484 -0.06068929372821087" fill="red" stroke="none" /><path d="M 120.95626037817324 101.35467743843564 l 13.250247567478674 0.8565369540858312 a34.277903304106005,34.277903304106005 0 0,0 -0.04313048414597861,0.5884811888426825 l -13.233540524668358 -1.084491279425284" fill="red" stroke="none" /><path d="M 120.70491114924044 103.5080841355445 l 23.161659490191223 3.9243370630645913 a44.491762209849384,44.491762209849384 0 0,0 -0.1344362189911325,0.7539897103486565 l -23.090676828860904 -4.322445524146466" fill="red" stroke="none" /><path d="M 120.64145759157962 103.86396538481128 l 4.229041298437245 0.7916528721675586 a25.302499805217767,25.302499805217767 0 0,0 -0.08382364796820217,0.42741497508414283 l -4.214787717493379 -0.8643315743196465" fill="red" stroke="none" /><path d="M 120.49622156327973 104.57218783832717 l 4.257879881251173 0.9498251446009137 a25.362534686220805,25.362534686220805 0 0,0 -0.09871996341992441,0.42528301867154883 l -4.240899351900697 -1.0229768206210275" fill="red" stroke="none" /><path d="M 120.23288151984713 105.62410040840565 l 18.96521151446225 5.271728286421199 a40.68426698950573,40.68426698950573 0 0,0 -0.193361400402118,0.6731164014323557 l -18.871657477174033 -5.5974021633581375" fill="red" stroke="none" /><path d="M 120.13307415673323 105.97154293290107 l 37.97426497583997 11.263304942069746 a60.609428658759505,60.609428658759505 0 0,0 -0.3052788040855376,0.997668795064929 l -37.774759399248296 -11.915300709686733" fill="red" stroke="none" /><path d="M 120.02730092923936 106.31721596034902 l 38.562273686655416 12.163706515490942 a61.43519145595224,61.43519145595224 0 0,0 -0.32679937837763434,1.0057850667919588 l -38.347182057261534 -12.825690482260697" fill="red" stroke="none" /><path d="M 119.9155931802556 106.66101706037122 l 18.864388652087026 6.30942867268452 a40.89155723900679,40.89155723900679 0 0,0 -0.22901057468175734,0.6656119274989925 l -18.752987246462038 -6.633213303272813" fill="red" stroke="none" /><path d="M 119.79798401119884 107.00284435728193 l 3.817376622585685 1.350263457429439 a25.049145055827587,25.049145055827587 0 0,0 -0.14728389033121822,0.40526201027763814 l -3.79356847124924 -1.4157732647132082" fill="red" stroke="none" /><path d="M 119.12269723197855 108.67885076344098 l 3.709174981665018 1.6834119021414289 a25.073310039375976,25.073310039375976 0 0,0 -0.18175210608751005,0.39147786708607696 l -3.6796482587376764 -1.7470098365063365" fill="red" stroke="none" /><path d="M 118.97047184881838 109.00673069616215 l 17.823509432734276 8.462180108142256 a40.73033148939486,40.73033148939486 0 0,0 -0.30615000869543485,0.6307596965498342 l -17.67520616742413 -8.767728760657366" fill="red" stroke="none" /><line stroke="#e1ed5e" stroke-width="0.3" x1="174.80103733775053" x2="179.2010983576182" y1="140.37084112569926" y2="142.7455964860345" /><path d="M 175.68104954172406 140.8457921977663 a86.0,86.0 0 0,1 -30.038265399797805,32.042727171017184" fill="none" id="id65" stroke="none" /><text fill="#e1ed5e" style="font-size:6.75px; font-family:Arial;" text-anchor="middle"><textPath startOffset="22.206326154141568" xlink:href="#id65">May</textPath></text><path d="M 118.30583269289576 110.29060199501025 l 7.595165718709211 4.269613341747342 a29.712986880667415,29.712986880667415 0 0,0 -0.25446768470659853,0.4436858574309309 l -7.520546037850233 -4.399719045036588" fill="red" stroke="none" /><path d="M 116.93607887273984 112.41649034213515 l 14.300350656355146 10.484136685238212 a38.731811834369175,38.731811834369175 0 0,0 -0.3988246633175254,0.5342908115088306 l -14.117764726342529 -10.728740376256358" fill="red" stroke="none" /><path d="M 116.71984013943494 112.70617746262583 l 13.25738734363327 10.074899931708734 a37.651183976314485,37.651183976314485 0 0,0 -0.3965802485347173,0.5126334307866094 l -13.082000277880486 -10.301611356608595" fill="red" stroke="none" /><path d="M 116.498646956653 112.99209946851258 l 13.00071982263923 10.237605880152566 a37.547727640497925,37.547727640497925 0 0,0 -0.4042318410742592,0.5043413752270982 l -12.822570069510117 -10.459875088957915" fill="red" stroke="none" /><path d="M 116.27256486870786 113.27417163493432 l 13.948706887781103 11.378509215216274 a39.001024854212986,39.001024854212986 0 0,0 -0.42883298319471963,0.5165569535345426 l -13.750777904692841 -11.616927425864587" fill="red" stroke="none" /><path d="M 115.56566222782051 114.09645910891815 l 15.14567210867583 13.716110784894319 a41.43338147950591,41.43338147950591 0 0,0 -0.4832978867756429,0.5245244036030601 l -14.907327813904466 -13.974786443298713" fill="red" stroke="none" /><path d="M 115.32070863581623 114.36230785411682 l 13.6057567009326 12.754636288179505 a39.64932605347222,39.64932605347222 0 0,0 -0.47105938536098363,0.49390388228038673 l -13.384190764192653 -12.986947287042398" fill="red" stroke="none" /><path d="M 114.81725581225074 114.88116024355365 l 2.9888847001427803 3.0017752771438664 a25.23604610045969,25.23604610045969 0 0,0 -0.31046351009049583,0.30385388853059336 l -2.9367712376764903 -3.052779268597032" fill="red" stroke="none" /><path d="M 114.55890576462653 115.13401014063108 l 12.48657855498763 12.979822077845348 a39.01084187877953,39.01084187877953 0 0,0 -0.4879404872286554,0.46137818638430944 l -12.261302233368168 -13.19283490097558" fill="red" stroke="none" /><path d="M 113.75828350139079 115.86535959552629 l 9.144125960496554 10.544545512192693 a34.957165888536615,34.957165888536615 0 0,0 -0.457996341759982,0.39031441846629644 l -8.961264142159525 -10.700384320881936" fill="red" stroke="none" /><line stroke="#e1ed5e" stroke-width="0.3" x1="143.8653032363475" x2="146.44561519142675" y1="172.8068346515853" y2="177.08958963109032" /><path d="M 144.38136562736335 173.6633856474863 a86.0,86.0 0 0,1 -40.68145358897372,12.25698825130547" fill="none" id="id66" stroke="none" /><text fill="#e1ed5e" style="font-size:6.75px; font-family:Arial;" text-anchor="middle"><textPath startOffset="21.466115282336833" xlink:href="#id66">June</textPath></text><path d="M 109.89434966115114 118.52300852407294 l 2.952774280518539 5.527828006974326 a27.26703745212852,27.26703745212852 0 0,0 -0.41589905509845376,0.21757872902425454 l -2.85718432289359 -5.577836154943298" fill="red" stroke="none" /><path d="M 107.93186726928326 119.44442032107085 l 1.5670444802589918 3.8415004313004837 a25.148825612964707,25.148825612964707 0 0,0 -0.4022362136044447,0.1600580906025815 l -1.5006871906126809 -3.867905366309134" fill="red" stroke="none" /><path d="M 103.06178313531738 120.77559828337769 l 1.5310658944001048 10.38898202832374 a31.501195663248488,31.501195663248488 0 0,0 -0.5371275004970806,0.07444097725196427 l -1.3520098027161938 -10.413797571068308" fill="red" stroke="none" /><line stroke="#e1ed5e" stroke-width="0.3" x1="102.19456741930631" x2="102.32365962044197" y1="184.97166512339345" y2="189.96999836594603" /><path d="M 102.22038585953345 185.97133177190398 a86.0,86.0 0 0,1 -42.740103519485714,-10.115201625700543" fill="none" id="id67" stroke="none" /><text fill="#e1ed5e" style="font-size:6.75px; font-family:Arial;" text-anchor="middle"><textPath startOffset="22.20632615414155" xlink:href="#id67">July</textPath></text><path d="M 100.54218724476979 120.99299961872073 l 0.1601576401561187 6.201158937555147 a27.203226792446046,27.203226792446046 0 0,0 -0.46820679656103725,0.008060604609341344 l -0.053391153702413485 -6.202997019443648" fill="red" stroke="none" /><line stroke="#e1ed5e" stroke-width="0.3" x1="58.666819895761336" x2="56.23545636021788" y1="174.27360380694188" y2="178.64263932499728" /><path d="M 58.180547188652646 175.14741091055294 a86.0,86.0 0 0,1 -31.652253787137756,-30.449443065178592" fill="none" id="id68" stroke="none" /><text fill="#e1ed5e" style="font-size:6.75px; font-family:Arial;" text-anchor="middle"><textPath startOffset="22.20632615414155" xlink:href="#id68">August</textPath></text><line stroke="#e1ed5e" stroke-width="0.3" x1="26.63291911575756" x2="22.317208475507996" y1="142.92168965132927" y2="145.44649492493687" /><path d="M 25.769776987707644 143.4266507060508 a86.0,86.0 0 0,1 -11.730757126820373,-40.83630448921669" fill="none" id="id69" stroke="none" /><text fill="#e1ed5e" style="font-size:6.75px; font-family:Arial;" text-anchor="middle"><textPath startOffset="21.46611528233685" xlink:href="#id69">September</textPath></text><line stroke="#e1ed5e" stroke-width="0.3" x1="15.007084014347285" x2="10.007500721073583" y1="101.09737516637583" y2="101.16192664675087" /><path d="M 14.007167355692545 101.11028546245083 a86.0,86.0 0 0,1 10.666146001902534,-42.60595125391555" fill="none" id="id70" stroke="none" /><text fill="#e1ed5e" style="font-size:6.75px; font-family:Arial;" text-anchor="middle"><textPath startOffset="22.20632615414155" xlink:href="#id70">October</textPath></text><line stroke="#e1ed5e" stroke-width="0.3" x1="26.266209847984243" x2="21.928928074336255" y1="57.711370442889674" y2="55.22380399835377" /><path d="M 25.398753493254645 57.213857153982495 a86.0,86.0 0 0,1 29.58750427330803,-30.492523968695096" fill="none" id="id71" stroke="none" /><text fill="#e1ed5e" style="font-size:6.75px; font-family:Arial;" text-anchor="middle"><textPath startOffset="21.46611528233685" xlink:href="#id71">November</textPath></text><line stroke="#e1ed5e" stroke-width="0.3" x1="56.762969772571076" x2="54.21961505331055" y1="26.818313649435495" y2="22.513508569990535" /><path d="M 56.25429882871897 25.957352633546506 a86.0,86.0 0 0,1 42.265352541879196,-11.944610805530505" fill="none" id="id72" stroke="none" /><text fill="#e1ed5e" style="font-size:6.75px; font-family:Arial;" text-anchor="middle"><textPath startOffset="22.20632615414155" xlink:href="#id72">December</textPath></text></svg>