<?xml version="1.0" encoding="utf-8" ?>
<svg baseProfile="full" height="200mm" version="1.1" viewBox="0,0,200,200" width="200mm" xmlns="http://www.w3.org/2000/svg" xmlns:ev="http://www.w3.org/2001/xml-events" xmlns:xlink="http://www.w3.org/1999/xlink"><defs /><rect fill="#1a1a1a" height="200" width="200" x="0" y="0" /><text alignment-baseline="middle" fill="#e1ed5e" style="dominant-baseline: central; font-size:9.0px; font-family:Arial;" text-anchor="middle" x="100.0" y="100.0">2025</text><line stroke="#e1ed5e" stroke-width="0.3" x1="100.0" x2="100.0" y1="15.0" y2="10.0" /><path d="M 100.0 14.0 a86.0,86.0 0 0,1 42.46469731375804,11.215312516191453" fill="none" id="id97" stroke="none" /><text fill="#e1ed5e" style="font-size:6.75px; font-family:Arial;" text-anchor="middle"><textPath startOffset="22.20632615414155" xlink:href="#id97">January</textPath></text><line stroke="#e1ed5e" stroke-width="0.3" x1="143.23703022742887" x2="145.7803849466894" y1="26.81831364943548" y2="22.513508569990506" /><path d="M 143.74570117128098 25.957352633546492 a86.0,86.0 0 0,1 28.547481713284135,27.462654790039103" fill="none" id="id98" stroke="none" /><text fill="#e1ed5e" style="font-size:6.75px; font-family:Arial;" text-anchor="middle"><textPath startOffset="19.985693538727396" xlink:href="#id98">February</textPath></text><line stroke="#e1ed5e" stroke-width="0.3" x1="172.23445277983987" x2="176.4835382374775" y1="55.19839476539836" y2="52.563006222186495" /><path d="M 173.08426987136738 54.67131705675599 a86.0,86.0 0 0,1 12.851231095245387,41.99856678651699" fill="none" id="id99" stroke="none" /><text fill="#e1ed5e" style="font-size:6.75px; font-family:Arial;" text-anchor="middle"><textPath startOffset="22.20632615414155" xlink:href="#id99">March</textPath></text><path d="M 118.73160827565052 90.50648371742162 l 3.444713018256592 -1.745842569756227 a24.861866654419785,24.861866654419785 0 0,0 0.1901814255866709,0.38339414895483526 l -3.474254456796671 1.6862888323024419" fill="red" stroke="none" /><path d="M 119.97218684219823 93.5106431181261 l 13.257769549680612 -4.307710454808101 a34.94004385914555,34.94004385914555 0 0,0 0.1809303888847829,0.5735987764520973 l -13.329955422333601 4.078861511929584" fill="red" stroke="none" /><path d="M 120.08093135843002 93.85539295169968 l 40.27172372002079 -12.322830699451648 a63.11488914658369,63.11488914658369 0 0,0 0.30894468612940135,1.0416078969979188 l -40.47787430326189 11.6277934157072" fill="red" stroke="none" /><path d="M 120.45610955862082 95.25157060432595 l 11.53496571354403 -2.6775849100398372 a32.84165929940181,32.84165929940181 0 0,0 0.12308680604903106,0.5517740166205428 l -11.579346906595099 2.478632723869331" fill="red" stroke="none" /><path d="M 120.67395015179393 96.31383870115 l 11.752868994808653 -2.095534260314467 a32.93822404904876,32.93822404904876 0 0,0 0.0947180016738989,0.5590310075580012 l -11.787198858002775 1.8929174644406277" fill="red" stroke="none" /><path d="M 120.78858239683441 97.02765380044208 l 11.548443352680763 -1.6511934799064267 a32.665889755100636,32.665889755100636 0 0,0 0.07479555589337515,0.5573137685423977 l -11.575154907631974 1.4521613692993647" fill="red" stroke="none" /><path d="M 120.87857604477298 97.74499172005257 l 15.403454319999287 -1.6636631232371033 a36.493036499535,36.493036499535 0 0,0 0.06207791220698716,0.6251161041799482 l -15.429809357888503 1.39827148835272" fill="red" stroke="none" /><path d="M 120.91429891909075 98.10471618934814 l 10.704839957898272 -0.9700879740847572 a31.74870546631916,31.74870546631916 0 0,0 0.044637948426471515,0.5446960345802109 l -10.719952390144238 0.7856780222967775" fill="red" stroke="none" /><path d="M 120.96714384426684 98.82574320788733 l 12.742492370170414 -0.7136383632054807 a33.762460245473434,33.762460245473434 0 0,0 0.027502565331431875,0.580535686082046 l -12.752888543735343 0.49419157050043494" fill="red" stroke="none" /><line stroke="#e1ed5e" stroke-width="0.3" x1="184.98032266829074" x2="189.97916517819016" y1="98.17113171792111" y2="98.06355123074" /><path d="M 185.9800911702706 98.14961562048488 a86.0,86.0 0 0,1 -9.607161424134198,41.387399972396054" fill="none" id="id100" stroke="none" /><text fill="#e1ed5e" style="font-size:6.75px; font-family:Arial;" text-anchor="middle"><textPath startOffset="21.466115282336823" xlink:href="#id100">April</textPath></text><path d="M 120.99513854157772 99.54816195383933 l 11.65812697666191 -0.2508954777600646 a32.660826434894425,32.660826434894425 0 0,0 0.007258468785770478,0.562176406571176 l -11.660718452565396 0.050182813128425915" fill="red" stroke="none" /><path d="M 120.9904718944345 100.63252640178507 l 18.149189549469284 0.5469072643423905 a39.15742792518686,39.15742792518686 0 0,0 -0.02610097495168342,0.6735501864279347 l -18.137086441666398 -0.8592346977843314" fill="red" stroke="none" /><path d="M 120.95626037817324 101.35467743843564 l 18.79451518180944 1.2149355478352182 a39.83374283844449,39.83374283844449 0 0,0 -0.05012116986054749,0.6838635412923159 l -18.770817453284558 -1.5382722256243044" fill="red" stroke="none" /><path d="M 120.92983693683757 101.71520430193887 l 18.134249740898564 1.486105374919503 a39.1950411610044,39.1950411610044 0 0,0 -0.060893049610210394,0.671949728312687 l -18.105982095011278 -1.7980364917807605" fill="red" stroke="none" /><path d="M 120.8583938346157 102.4346265915055 l 11.667691741649849 1.3618724816945287 a32.74690287839994,32.74690287839994 0 0,0 -0.07016958125562106,0.5593206030741459 l -11.642520651147379 -1.5625108390560696" fill="red" stroke="none" /><path d="M 120.81339534386255 102.79330883721812 l 11.655066470814564 1.5641945791843628 a32.75956117891546,32.75956117891546 0 0,0 -0.0798178112380436,0.5582455858957 l -11.62641460855992 -1.764585637060472" fill="red" stroke="none" /><path d="M 120.70491114924044 103.5080841355445 l 19.699820682990296 3.3377891802064035 a40.98058486515035,40.98058486515035 0 0,0 -0.12382685260545657,0.694486749404432 l -19.63944738804565 -3.6763946803440537" fill="red" stroke="none" /><path d="M 120.64145759157962 103.86396538481128 l 11.792342409518342 2.207460528117383 a32.99717556287817,32.99717556287817 0 0,0 -0.10931503407253391,0.5573950036409566 l -11.752597442470144 -2.4101192588262847" fill="red" stroke="none" /><path d="M 120.49622156327973 104.57218783832717 l 18.396051300911452 4.103693052477472 a39.84820946760508,39.84820946760508 0 0,0 -0.15510333764584885,0.6681811191468288 l -18.322687397335052 -4.419742828972866" fill="red" stroke="none" /><path d="M 120.32669344350535 105.2749913415812 l 19.392123436564614 5.03246056753202 a41.03447305877355,41.03447305877355 0 0,0 -0.18331061209262206,0.6821669808181686 l -19.302624748130214 -5.365518481525737" fill="red" stroke="none" /><path d="M 120.02730092923936 106.31721596034902 l 17.986216429217613 5.6733962252027075 a39.85978277093355,39.85978277093355 0 0,0 -0.2120307908724937,0.6525636744425276 l -17.885893387328874 -5.98215879962303" fill="red" stroke="none" /><path d="M 119.79798401119884 107.00284435728193 l 24.280074654192486 8.588227149305585 a46.754216563142236,46.754216563142236 0 0,0 -0.2749053067264598,0.7564213369800004 l -24.1286450864608 -9.004896283291716" fill="red" stroke="none" /><path d="M 119.54520255179757 107.68017299344265 l 20.361932917794874 8.001102412476996 a42.877521613832855,42.877521613832855 0 0,0 -0.2758400512929033,0.6846123858310278 l -20.22119025224458 -8.350414166150838" fill="red" stroke="none" /><path d="M 119.26925614724726 108.34839909993367 l 23.441492470574847 10.15601916062576 a46.54698210041677,46.54698210041677 0 0,0 -0.3248512002699971,0.7324536983965625 l -23.263200185573577 -10.55802119551501" fill="red" stroke="none" /><path d="M 118.81262510543309 109.33194174019688 l 23.679452537785732 11.746115721965664 a47.432701470773964,47.432701470773964 0 0,0 -0.36911976999927015,0.7283083246102134 l -23.473754098000192 -12.151978258278572" fill="red" stroke="none" /><line stroke="#e1ed5e" stroke-width="0.3" x1="174.80103733775053" x2="179.2010983576182" y1="140.37084112569926" y2="142.7455964860345" /><path d="M 175.68104954172406 140.8457921977663 a86.0,86.0 0 0,1 -30.038265399797805,32.042727171017184" fill="none" id="id101" stroke="none" /><text fill="#e1ed5e" style="font-size:6.75px; font-family:Arial;" text-anchor="middle"><textPath startOffset="22.206326154141568" xlink:href="#id101">May</textPath></text><path d="M 118.48025628344425 109.97397251340804 l 8.138488698071454 4.392420826326232 a30.248154356636853,30.248154356636853 0 0,0 -0.2512376995404554,0.45606940158881437 l -8.06167458907949 -4.5318607463128515" fill="red" stroke="none" /><path d="M 118.30583269289576 110.29060199501025 l 16.394478197227773 9.216136347024396 a39.80734124022641,39.80734124022641 0 0,0 -0.34091766002551327,0.5944186762895641 l -16.23340854104988 -9.496974869172274" fill="red" stroke="none" /><path d="M 118.12598468904814 110.60418214915192 l 27.928505221598577 16.338916842532345 a53.356786112036005,53.356786112036005 0 0,0 -0.470604628534681,0.7887604265517837 l -27.643119717365668 -16.817239362970234" fill="red" stroke="none" /><path d="M 117.94076556474637 110.91462005526583 l 16.09193792055218 9.789849141158122 a39.83591283281858,39.83591283281858 0 0,0 -0.3614357145598433,0.5827494555073832 l -15.921037566324372 -10.065394928030779" fill="red" stroke="none" /><path d="M 117.55443506779139 111.5257021239791 l 18.757187071500407 12.315392095216286 a43.43882682526379,43.43882682526379 0 0,0 -0.41576520459426136,0.6215125691046824 l -18.542418761495426 -12.636441578526776" fill="red" stroke="none" /><path d="M 117.14729908036423 112.12312394758627 l 15.367541067040099 10.86483674497103 a39.82036120647095,39.82036120647095 0 0,0 -0.4005173791290136,0.556283609370287 l -15.178243895535482 -11.127753959792448" fill="red" stroke="none" /><path d="M 116.71984013943494 112.70617746262583 l 19.207265981963697 14.59648705390881 a45.12418912247264,45.12418912247264 0 0,0 -0.47529347678350187,0.6143808889481106 l -18.953165687962127 -14.924945936970172" fill="red" stroke="none" /><path d="M 116.498646956653 112.99209946851258 l 38.692269883830996 30.46879058106985 a70.24874565140016,70.24874565140016 0 0,0 -0.7562849091617165,0.9435817083000434 l -38.162067062614426 -31.130300122948142" fill="red" stroke="none" /><path d="M 116.0416608686014 113.55231037782055 l 17.62949005156077 14.893739678108629 a44.07861349989092,44.07861349989092 0 0,0 -0.4946407351897089,0.5753789236918063 l -17.370506806800282 -15.194995700961965" fill="red" stroke="none" /><path d="M 115.56566222782051 114.09645910891815 l 21.87488727149306 19.81017250802648 a50.51192348760577,50.51192348760577 0 0,0 -0.5891941474921092,0.6394538798452847 l -21.530646716005226 -20.1837776426731" fill="red" stroke="none" /><path d="M 115.07121518719521 114.62390073753431 l 22.130791310363577 21.47394827464301 a51.83670505298689,51.83670505298689 0 0,0 -0.626877010211291,0.6350231016953044 l -21.75787367509675 -21.85171187031898" fill="red" stroke="none" /><path d="M 114.81725581225074 114.88116024355365 l 20.679970500172 20.769159873084217 a50.309029013628475,50.309029013628475 0 0,0 -0.6189209543618317,0.6057444194362523 l -20.319399593434376 -21.12205439544304" fill="red" stroke="none" /><path d="M 114.29624159901734 115.38237550388516 l 12.834314370735676 13.809380711580562 a39.85254945635326,39.85254945635326 0 0,0 -0.5065077811807034,0.46268284892499356 l -12.594707040088108 -14.028256327092139" fill="red" stroke="none" /><path d="M 113.75828350139079 115.86535959552629 l 18.975237827222127 21.88128857128723 a49.96291491096134,49.96291491096134 0 0,0 -0.6545963229928041,0.5578611876184134 l -18.595776027652278 -22.20467414912859" fill="red" stroke="none" /><path d="M 113.20401910651253 116.32954008644616 l 18.369530467595013 22.717778709653384 a50.21535758981365,50.21535758981365 0 0,0 -0.6768133674436023,0.5377014722883041 l -17.97575960743406 -23.030614095946813" fill="red" stroke="none" /><path d="M 112.92097659922987 116.55440617244103 l 17.871171751337332 22.89661572227642 a50.04537469717671,50.04537469717671 0 0,0 -0.6836466796380295,0.5241911217565143 l -17.474396343205807 -23.200846185860303" fill="red" stroke="none" /><path d="M 112.34349029814194 116.9893568818739 l 17.058625078494085 23.479183146135405 a50.021866424790744,50.021866424790744 0 0,0 -0.700955633276635,0.5001132328165145 l -16.651942117368566 -23.76934064079614" fill="red" stroke="none" /><path d="M 112.04921762599082 117.19931262002967 l 6.931997338534451 9.894882224509878 a33.08144367773861,33.08144367773861 0 0,0 -0.4691942974357281,0.3227161161183157 l -6.76064615647584 -10.012739129993287" fill="red" stroke="none" /><path d="M 111.7513745106137 117.40417183066458 l 10.814605239258885 16.0167857551361 a40.325969895633605,40.325969895633605 0 0,0 -0.578630239400235,0.3834845709319024 l -10.537300301118686 -16.200568347159322" fill="red" stroke="none" /><path d="M 111.1453310114006 117.79835938074945 l 2.1908815716521777 3.498693536606444 a25.12805263097466,25.12805263097466 0 0,0 -0.36856966073980335,0.226405588758282 l -2.1303327109800656 -3.535887592193104" fill="red" stroke="none" /><line stroke="#e1ed5e" stroke-width="0.3" x1="143.8653032363475" x2="146.44561519142675" y1="172.8068346515853" y2="177.08958963109032" /><path d="M 144.38136562736335 173.6633856474863 a86.0,86.0 0 0,1 -40.68145358897372,12.25698825130547" fill="none" id="id102" stroke="none" /><text fill="#e1ed5e" style="font-size:6.75px; font-family:Arial;" text-anchor="middle"><textPath startOffset="21.466115282336833" xlink:href="#id102">June</textPath></text><path d="M 110.8373102113329 117.98757091392108 l 32.51193063399873 53.96271274176323 a84.0,84.0 0 0,0 -1.2449285158864716,0.735525710825002 l -31.578234247083873 -54.514357024881974" fill="red" stroke="none" /><path d="M 110.21172684928248 118.3499491758327 l 9.214437062263455 16.557870600340625 a39.9491142060002,39.9491142060002 0 0,0 -0.6037589302399317,0.3292175079649947 l -8.928055320154874 -16.71402876006539" fill="red" stroke="none" /><path d="M 109.89434966115114 118.52300852407294 l 9.211263854378211 17.244217632822362 a40.55020264762277,40.55020264762277 0 0,0 -0.6185047053537027,0.32357242950341103 l -8.913068246498014 -17.40021948127049" fill="red" stroke="none" /><path d="M 109.57404056367764 118.69057910512821 l 7.254316830193254 14.161981210188998 a36.91184541373411,36.91184541373411 0 0,0 -0.5679961240793427,0.2848050480194959 l -7.009466798431151 -14.284754099117796" fill="red" stroke="none" /><path d="M 109.2508944713604 118.85261126421891 l 12.780534982801809 26.045747092397722 a50.01246311583636,50.01246311583636 0 0,0 -0.7761156272169847,0.372582665533147 l -12.330306687584592 -26.26188403443043" fill="red" stroke="none" /><path d="M 108.92500713936063 119.00905698771935 l 2.326986286831589 4.956165776153312 a26.475257471554706,26.475257471554706 0 0,0 -0.4141890190334986,0.19013386394975484 l -2.241329272030671 -4.995486710437141" fill="red" stroke="none" /><path d="M 108.59647513512805 119.15986991738527 l 7.482744175108929 16.67758037643925 a39.27930927586483,39.27930927586483 0 0,0 -0.6192651054744173,0.27146762371609134 l -7.194558394976758 -16.803912553449795" fill="red" stroke="none" /><path d="M 107.93186726928326 119.44442032107085 l 8.293093850263226 20.329942132425163 a42.95636474275807,42.95636474275807 0 0,0 -0.687054169854795,0.2733930333673095 l -7.941918604366565 -20.469682010198543" fill="red" stroke="none" /><path d="M 107.2578585660854 119.70592522655815 l 6.503923581221887 17.658904565831776 a39.81855287782587,39.81855287782587 0 0,0 -0.6452130794454631,0.2313504547073289 l -6.19899094114669 -17.768242561579065" fill="red" stroke="none" /><line stroke="#e1ed5e" stroke-width="0.3" x1="102.19456741930631" x2="102.32365962044197" y1="184.97166512339345" y2="189.96999836594603" /><path d="M 102.22038585953345 185.97133177190398 a86.0,86.0 0 0,1 -42.740103519485714,-10.115201625700543" fill="none" id="id103" stroke="none" /><text fill="#e1ed5e" style="font-size:6.75px; font-family:Arial;" text-anchor="middle"><textPath startOffset="22.20632615414155" xlink:href="#id103">July</textPath></text><line stroke="#e1ed5e" stroke-width="0.3" x1="58.666819895761336" x2="56.23545636021788" y1="174.27360380694188" y2="178.64263932499728" /><path d="M 58.180547188652646 175.14741091055294 a86.0,86.0 0 0,1 -31.652253787137756,-30.449443065178592" fill="none" id="id104" stroke="none" /><text fill="#e1ed5e" style="font-size:6.75px; font-family:Arial;" text-anchor="middle"><textPath startOffset="22.20632615414155" xlink:href="#id104">August</textPath></text><line stroke="#e1ed5e" stroke-width="0.3" x1="26.63291911575756" x2="22.317208475507996" y1="142.92168965132927" y2="145.44649492493687" /><path d="M 25.769776987707644 143.4266507060508 a86.0,86.0 0 0,1 -11.730757126820373,-40.83630448921669" fill="none" id="id105" stroke="none" /><text fill="#e1ed5e" style="font-size:6.75px; font-family:Arial;" text-anchor="middle"><textPath startOffset="21.46611528233685" xlink:href="#id105">September</textPath></text><line stroke="#e1ed5e" stroke-width="0.3" x1="15.007084014347285" x2="10.007500721073583" y1="101.09737516637583" y2="101.16192664675087" /><path d="M 14.007167355692545 101.11028546245083 a86.0,86.0 0 0,1 10.666146001902534,-42.60595125391555" fill="none" id="id106" stroke="none" /><text fill="#e1ed5e" style="font-size:6.75px; font-family:Arial;" text-anchor="middle"><textPath startOffset="22.20632615414155" xlink:href="#id106">October</textPath></text><line stroke="#e1ed5e" stroke-width="0.3" x1="26.266209847984243" x2="21.928928074336255" y1="57.711370442889674" y2="55.22380399835377" /><path d="M 25.398753493254645 57.213857153982495 a86.0,86.0 0 0,1 29.58750427330803,-30.492523968695096" fill="none" id="id107" stroke="none" /><text fill="#e1ed5e" style="font-size:6.75px; font-family:Arial;" text-anchor="middle"><textPath startOffset="21.46611528233685" xlink:href="#id107">November</textPath></text><line stroke="#e1ed5e" stroke-width="0.3" x1="56.762969772571076" x2="54.21961505331055" y1="26.818313649435495" y2="22.513508569990535" /><path d="M 56.25429882871897 25.957352633546506 a86.0,86.0 0 0,1 42.265352541879196,-11.944610805530505" fill="none" id="id108" stroke="none" /><text fill="#e1ed5e" style="font-size:6.75px; font-family:Arial;" text-anchor="middle"><textPath startOffset="22.20632615414155" xlink:href="#id108">December</textPath></text></svg>