<?xml version="1.0" encoding="utf-8" ?>
<svg baseProfile="full" height="200mm" version="1.1" viewBox="0,0,200,200" width="200mm" xmlns="http://www.w3.org/2000/svg" xmlns:ev="http://www.w3.org/2001/xml-events" xmlns:xlink="http://www.w3.org/1999/xlink"><defs /><rect fill="#1a1a1a" height="200" width="200" x="0" y="0" /><text alignment-baseline="middle" fill="#e1ed5e" style="dominant-baseline: central; font-size:9.0px; font-family:Arial;" text-anchor="middle" x="100.0" y="100.0">2023</text><line stroke="#e1ed5e" stroke-width="0.3" x1="100.0" x2="100.0" y1="15.0" y2="10.0" /><path d="M 100.0 14.0 a86.0,86.0 0 0,1 42.46469731375804,11.215312516191453" fill="none" id="id73" stroke="none" /><text fill="#e1ed5e" style="font-size:6.75px; font-family:Arial;" text-anchor="middle"><textPath startOffset="22.20632615414155" xlink:href="#id73">January</textPath></text><line stroke="#e1ed5e" stroke-width="0.3" x1="143.23703022742887" x2="145.7803849466894" y1="26.81831364943548" y2="22.513508569990506" /><path d="M 143.74570117128098 25.957352633546492 a86.0,86.0 0 0,1 28.547481713284135,27.462654790039103" fill="none" id="id74" stroke="none" /><text fill="#e1ed5e" style="font-size:6.75px; font-family:Arial;" text-anchor="middle"><textPath startOffset="19.985693538727396" xlink:href="#id74">February</textPath></text><line stroke="#e1ed5e" stroke-width="0.3" x1="172.23445277983987" x2="176.4835382374775" y1="55.19839476539836" y2="52.563006222186495" /><path d="M 173.08426987136738 54.67131705675599 a86.0,86.0 0 0,1 12.851231095245387,41.99856678651699" fill="none" id="id75" stroke="none" /><text fill="#e1ed5e" style="font-size:6.75px; font-family:Arial;" text-anchor="middle"><textPath startOffset="22.20632615414155" xlink:href="#id75">March</textPath></text><path d="M 119.61058180528143 92.48833698450437 l 8.277347587077074 -3.1705660930214608 a29.86380124029798,29.86380124029798 0 0,0 0.17974511650824462,0.48162754859255363 l -8.330697292086944 3.027615407399574" fill="red" stroke="none" /><path d="M 120.28053869075195 94.5502522615342 l 5.998631528968521 -1.6119408417781884 a27.21143570342057,27.21143570342057 0 0,0 0.11766181794980943,0.45339898183688043 l -6.025489678788633 1.5084454343924576" fill="red" stroke="none" /><line stroke="#e1ed5e" stroke-width="0.3" x1="184.98032266829074" x2="189.97916517819016" y1="98.17113171792111" y2="98.06355123074" /><path d="M 185.9800911702706 98.14961562048488 a86.0,86.0 0 0,1 -9.607161424134198,41.387399972396054" fill="none" id="id76" stroke="none" /><text fill="#e1ed5e" style="font-size:6.75px; font-family:Arial;" text-anchor="middle"><textPath startOffset="21.466115282336823" xlink:href="#id76">April</textPath></text><line stroke="#e1ed5e" stroke-width="0.3" x1="174.80103733775053" x2="179.2010983576182" y1="140.37084112569926" y2="142.7455964860345" /><path d="M 175.68104954172406 140.8457921977663 a86.0,86.0 0 0,1 -30.038265399797805,32.042727171017184" fill="none" id="id77" stroke="none" /><text fill="#e1ed5e" style="font-size:6.75px; font-family:Arial;" text-anchor="middle"><textPath startOffset="22.206326154141568" xlink:href="#id77">May</textPath></text><path d="M 118.48025628344425 109.97397251340804 l 7.729822084335118 4.17185951429479 a29.78376691758649,29.78376691758649 0 0,0 -0.247380550753561,0.4490675561560007 l -7.656865124130047 -4.304297588848596" fill="red" stroke="none" /><path d="M 117.35343817320211 111.8261652097733 l 16.37637481135822 11.160307953000636 a40.81762159210578,40.81762159210578 0 0,0 -0.40067178508551843,0.5771975899295042 l -16.181842119110566 -11.44054680511716" fill="red" stroke="none" /><path d="M 114.55890576462653 115.13401014063108 l 13.401643392915119 13.931033711495537 a40.330746128944185,40.330746128944185 0 0,0 -0.5044496085883471,0.47698859107729735 l -13.159857949935963 -14.159656939318756" fill="red" stroke="none" /><path d="M 112.04921762599082 117.19931262002967 l 12.171607755604642 17.37401492570414 a42.21330785132025,42.21330785132025 0 0,0 -0.5987115771814535,0.41179928212903527 l -11.870739293800305 -17.580954997198273" fill="red" stroke="none" /><line stroke="#e1ed5e" stroke-width="0.3" x1="143.8653032363475" x2="146.44561519142675" y1="172.8068346515853" y2="177.08958963109032" /><path d="M 144.38136562736335 173.6633856474863 a86.0,86.0 0 0,1 -40.68145358897372,12.25698825130547" fill="none" id="id78" stroke="none" /><text fill="#e1ed5e" style="font-size:6.75px; font-family:Arial;" text-anchor="middle"><textPath startOffset="21.466115282336833" xlink:href="#id78">June</textPath></text><path d="M 110.21172684928248 118.3499491758327 l 16.956008200233065 30.469076708719548 a55.86933967783455,55.86933967783455 0 0,0 -0.8443644728431651,0.46041483386943055 l -16.429020915521253 -30.75643219434875" fill="red" stroke="none" /><path d="M 108.2653958097858 119.30500536409082 l 2.122154524162017 4.956593176563075 a26.391785951090135,26.391785951090135 0 0,0 -0.4191625642629763,0.17520998585701464 l -2.0365205004015796 -4.992388205440063" fill="red" stroke="none" /><path d="M 107.93186726928326 119.44442032107085 l 4.808627962797168 11.788016629876317 a33.73107375482663,33.73107375482663 0 0,0 -0.5395027027011245,0.21467925947162902 l -4.605004184054177 -11.869042733754016" fill="red" stroke="none" /><path d="M 106.57524785965236 119.94407469862006 l 1.1337139570684311 3.4387868456469675 a24.620851047232733,24.620851047232733 0 0,0 -0.4036396895836951,0.12923268208342126 l -1.0743529223937958 -3.4577923743900953" fill="red" stroke="none" /><path d="M 106.2309692047433 120.05430185196036 l 1.0753944666714434 3.461144572523289 a24.62436132454464,24.62436132454464 0 0,0 -0.4058622710881255,0.12228297293987545 l -1.015657221143072 -3.4791429145688904" fill="red" stroke="none" /><path d="M 103.06178313531738 120.77559828337769 l 1.2169476086917246 8.257545858967449 a29.346737392253992,29.346737392253992 0 0,0 -0.5003917905768813,0.06934974259357579 l -1.0746272269280128 -8.277270167053628" fill="red" stroke="none" /><line stroke="#e1ed5e" stroke-width="0.3" x1="102.19456741930631" x2="102.32365962044197" y1="184.97166512339345" y2="189.96999836594603" /><path d="M 102.22038585953345 185.97133177190398 a86.0,86.0 0 0,1 -42.740103519485714,-10.115201625700543" fill="none" id="id79" stroke="none" /><text fill="#e1ed5e" style="font-size:6.75px; font-family:Arial;" text-anchor="middle"><textPath startOffset="22.20632615414155" xlink:href="#id79">July</textPath></text><path d="M 100.54218724476979 120.99299961872073 l 0.11292483665785345 4.37234751604855 a25.373805530636922,25.373805530636922 0 0,0 -0.4367198161712641,0.007518527687074882 l -0.0376453305939214 -4.373643521014785" fill="red" stroke="none" /><path d="M 94.81253420990036 120.34920634021253 l -5.026500090606877 19.717775818024553 a41.34837552166621,41.34837552166621 0 0,0 -0.6881739247162769,-0.18175298823303912 l 5.365164458134643 -19.628331480487933" fill="red" stroke="none" /><line stroke="#e1ed5e" stroke-width="0.3" x1="58.666819895761336" x2="56.23545636021788" y1="174.27360380694188" y2="178.64263932499728" /><path d="M 58.180547188652646 175.14741091055294 a86.0,86.0 0 0,1 -31.652253787137756,-30.449443065178592" fill="none" id="id80" stroke="none" /><text fill="#e1ed5e" style="font-size:6.75px; font-family:Arial;" text-anchor="middle"><textPath startOffset="22.20632615414155" xlink:href="#id80">August</textPath></text><path d="M 88.54995079064634 117.60387380957326 l -23.69253550522945 36.42607971694791 a64.45337181637349,64.45337181637349 0 0,0 -0.9248300799901904,-0.612926947574611 l 24.3160402839596 -36.01285474828198" fill="red" stroke="none" /><path d="M 83.06392112726016 112.41649034213515 l -38.75227519436469 28.41078234827278 a69.05113303951012,69.05113303951012 0 0,0 -0.6945235551097562,-0.9646324733007082 l 39.23557854185005 -27.739516269520934" fill="red" stroke="none" /><line stroke="#e1ed5e" stroke-width="0.3" x1="26.63291911575756" x2="22.317208475507996" y1="142.92168965132927" y2="145.44649492493687" /><path d="M 25.769776987707644 143.4266507060508 a86.0,86.0 0 0,1 -11.730757126820373,-40.83630448921669" fill="none" id="id81" stroke="none" /><text fill="#e1ed5e" style="font-size:6.75px; font-family:Arial;" text-anchor="middle"><textPath startOffset="21.46611528233685" xlink:href="#id81">September</textPath></text><path d="M 79.76711848015287 105.62410040840567 l -36.42940052312291 10.126219844617438 a58.81060103748196,58.81060103748196 0 0,0 -0.26272074356298053,-0.9776816213133814 l 36.598309343027665 -9.49764729012852" fill="red" stroke="none" /><path d="M 79.18660465613746 102.79330883721812 l -24.12502058799029 3.2377529996024417 a45.34131596396115,45.34131596396115 0 0,0 -0.09715670414952587,-0.7744345254056074 l 24.177178801386663 -2.8220007199094255" fill="red" stroke="none" /><path d="M 79.0235259727143 100.99374915477108 l -10.535864863882825 0.4991309211284378 a31.547681266820078,31.547681266820078 0 0,0 -0.021028583391695558,-0.5426542989297958 l 10.542895580125721 -0.3176993751846453" fill="red" stroke="none" /><line stroke="#e1ed5e" stroke-width="0.3" x1="15.007084014347285" x2="10.007500721073583" y1="101.09737516637583" y2="101.16192664675087" /><path d="M 14.007167355692545 101.11028546245083 a86.0,86.0 0 0,1 10.666146001902534,-42.60595125391555" fill="none" id="id82" stroke="none" /><text fill="#e1ed5e" style="font-size:6.75px; font-family:Arial;" text-anchor="middle"><textPath startOffset="22.20632615414155" xlink:href="#id82">October</textPath></text><path d="M 79.3925641242962 95.95851677861259 l -15.613600585124663 -3.062103658642144 a36.911033971683764,36.911033971683764 0 0,0 0.12764310835853473,-0.6224331278834702 l 15.558578180851134 3.3304124426890165" fill="red" stroke="none" /><path d="M 80.14247586403 93.16781622104843 l -59.572572407909995 -20.496551336854708 a84.0,84.0 0 0,0 0.4821876767607618,-1.3632094942935558 l 59.210931650339425 21.518958457574875" fill="red" stroke="none" /><line stroke="#e1ed5e" stroke-width="0.3" x1="26.266209847984243" x2="21.928928074336255" y1="57.711370442889674" y2="55.22380399835377" /><path d="M 25.398753493254645 57.213857153982495 a86.0,86.0 0 0,1 29.58750427330803,-30.492523968695096" fill="none" id="id83" stroke="none" /><text fill="#e1ed5e" style="font-size:6.75px; font-family:Arial;" text-anchor="middle"><textPath startOffset="21.46611528233685" xlink:href="#id83">November</textPath></text><path d="M 82.34701348167596 88.62581576622439 l -37.69179620218535 -24.285603666018176 a65.83817621592107,65.83817621592107 0 0,0 0.6220245563398519,-0.9473860739574546 l 37.26817501048758 24.930807803953297" fill="red" stroke="none" /><path d="M 85.83668400450813 84.49514656593479 l -5.412542225665173 -5.925213695813838 a29.025195990483247,29.025195990483247 0 0,0 0.3717837525863552,-0.3337911239222695 l 5.309747485482846 6.017503828505387" fill="red" stroke="none" /><path d="M 87.80319425747018 82.90503203632743 l -19.42519689885107 -27.22623658061255 a54.44557120012481,54.44557120012481 0 0,0 0.7676018199970304,-0.5377541291086118 l 18.953663939270378 27.556575552485103" fill="red" stroke="none" /><line stroke="#e1ed5e" stroke-width="0.3" x1="56.762969772571076" x2="54.21961505331055" y1="26.818313649435495" y2="22.513508569990535" /><path d="M 56.25429882871897 25.957352633546506 a86.0,86.0 0 0,1 42.265352541879196,-11.944610805530505" fill="none" id="id84" stroke="none" /><text fill="#e1ed5e" style="font-size:6.75px; font-family:Arial;" text-anchor="middle"><textPath startOffset="22.20632615414155" xlink:href="#id84">December</textPath></text></svg>