<?xml version="1.0" encoding="utf-8" ?>
<svg baseProfile="full" height="200mm" version="1.1" viewBox="0,0,200,200" width="200mm" xmlns="http://www.w3.org/2000/svg" xmlns:ev="http://www.w3.org/2001/xml-events" xmlns:xlink="http://www.w3.org/1999/xlink"><defs /><rect fill="#1a1a1a" height="200" width="200" x="0" y="0" /><text alignment-baseline="middle" fill="#e1ed5e" style="dominant-baseline: central; font-size:9.0px; font-family:Arial;" text-anchor="middle" x="100.0" y="100.0">2017</text><line stroke="#e1ed5e" stroke-width="0.3" x1="100.0" x2="100.0" y1="15.0" y2="10.0" /><path d="M 100.0 14.0 a86.0,86.0 0 0,1 42.46469731375804,11.215312516191453" fill="none" id="id1" stroke="none" /><text fill="#e1ed5e" style="font-size:6.75px; font-family:Arial;" text-anchor="middle"><textPath startOffset="22.20632615414155" xlink:href="#id1">January</textPath></text><line stroke="#e1ed5e" stroke-width="0.3" x1="143.23703022742887" x2="145.7803849466894" y1="26.81831364943548" y2="22.513508569990506" /><path d="M 143.74570117128098 25.957352633546492 a86.0,86.0 0 0,1 28.547481713284135,27.462654790039103" fill="none" id="id2" stroke="none" /><text fill="#e1ed5e" style="font-size:6.75px; font-family:Arial;" text-anchor="middle"><textPath startOffset="19.985693538727396" xlink:href="#id2">February</textPath></text><line stroke="#e1ed5e" stroke-width="0.3" x1="172.23445277983987" x2="176.4835382374775" y1="55.19839476539836" y2="52.563006222186495" /><path d="M 173.08426987136738 54.67131705675599 a86.0,86.0 0 0,1 12.851231095245387,41.99856678651699" fill="none" id="id3" stroke="none" /><text fill="#e1ed5e" style="font-size:6.75px; font-family:Arial;" text-anchor="middle"><textPath startOffset="22.20632615414155" xlink:href="#id3">March</textPath></text><line stroke="#e1ed5e" stroke-width="0.3" x1="184.98032266829074" x2="189.97916517819016" y1="98.17113171792111" y2="98.06355123074" /><path d="M 185.9800911702706 98.14961562048488 a86.0,86.0 0 0,1 -9.607161424134198,41.387399972396054" fill="none" id="id4" stroke="none" /><text fill="#e1ed5e" style="font-size:6.75px; font-family:Arial;" text-anchor="middle"><textPath startOffset="21.466115282336823" xlink:href="#id4">April</textPath></text><line stroke="#e1ed5e" stroke-width="0.3" x1="174.80103733775053" x2="179.2010983576182" y1="140.37084112569926" y2="142.7455964860345" /><path d="M 175.68104954172406 140.8457921977663 a86.0,86.0 0 0,1 -30.038265399797805,32.042727171017184" fill="none" id="id5" stroke="none" /><text fill="#e1ed5e" style="font-size:6.75px; font-family:Arial;" text-anchor="middle"><textPath startOffset="22.206326154141568" xlink:href="#id5">May</textPath></text><line stroke="#e1ed5e" stroke-width="0.3" x1="143.8653032363475" x2="146.44561519142675" y1="172.8068346515853" y2="177.08958963109032" /><path d="M 144.38136562736335 173.6633856474863 a86.0,86.0 0 0,1 -40.68145358897372,12.25698825130547" fill="none" id="id6" stroke="none" /><text fill="#e1ed5e" style="font-size:6.75px; font-family:Arial;" text-anchor="middle"><textPath startOffset="21.466115282336833" xlink:href="#id6">June</textPath></text><line stroke="#e1ed5e" stroke-width="0.3" x1="102.19456741930631" x2="102.32365962044197" y1="184.97166512339345" y2="189.96999836594603" /><path d="M 102.22038585953345 185.97133177190398 a86.0,86.0 0 0,1 -42.740103519485714,-10.115201625700543" fill="none" id="id7" stroke="none" /><text fill="#e1ed5e" style="font-size:6.75px; font-family:Arial;" text-anchor="middle"><textPath startOffset="22.20632615414155" xlink:href="#id7">July</textPath></text><line stroke="#e1ed5e" stroke-width="0.3" x1="58.666819895761336" x2="56.23545636021788" y1="174.27360380694188" y2="178.64263932499728" /><path d="M 58.180547188652646 175.14741091055294 a86.0,86.0 0 0,1 -31.652253787137756,-30.449443065178592" fill="none" id="id8" stroke="none" /><text fill="#e1ed5e" style="font-size:6.75px; font-family:Arial;" text-anchor="middle"><textPath startOffset="22.20632615414155" xlink:href="#id8">August</textPath></text><line stroke="#e1ed5e" stroke-width="0.3" x1="26.63291911575756" x2="22.317208475507996" y1="142.92168965132927" y2="145.44649492493687" /><path d="M 25.769776987707644 143.4266507060508 a86.0,86.0 0 0,1 -11.730757126820373,-40.83630448921669" fill="none" id="id9" stroke="none" /><text fill="#e1ed5e" style="font-size:6.75px; font-family:Arial;" text-anchor="middle"><textPath startOffset="21.46611528233685" xlink:href="#id9">September</textPath></text><path d="M 79.18660465613746 102.79330883721812 l -12.30347967712797 1.651216341344778 a33.413787801127626,33.413787801127626 0 0,0 -0.07159857244746765,-0.5707110688701166 l 12.330079758822288 -1.4391875181872527" fill="red" stroke="none" /><path d="M 79.1416061653843 102.43462659150553 l -20.12070589274564 2.348522421944342 a41.257303946694,41.257303946694 0 0,0 -0.07626255168963,-0.706096513693301 l 20.15815074593632 -2.001829586366259" fill="red" stroke="none" /><line stroke="#e1ed5e" stroke-width="0.3" x1="15.007084014347285" x2="10.007500721073583" y1="101.09737516637583" y2="101.16192664675087" /><path d="M 14.007167355692545 101.11028546245083 a86.0,86.0 0 0,1 10.666146001902534,-42.60595125391555" fill="none" id="id10" stroke="none" /><text fill="#e1ed5e" style="font-size:6.75px; font-family:Arial;" text-anchor="middle"><textPath startOffset="22.20632615414155" xlink:href="#id10">October</textPath></text><path d="M 79.00486145842228 99.54816195383935 l -15.13995920766052 -0.3258282660909359 a36.1434648898001,36.1434648898001 0 0,0 0.01874005186437183,-0.6218910876276839 l 15.132107461340503 0.5863895011436141" fill="red" stroke="none" /><path d="M 79.01574976396665 99.18683210126434 l -5.95539690194345 -0.23077963379289168 a26.95986673500769,26.95986673500769 0 0,0 0.02196124011150976,-0.46356706880643217 l 5.950542053598442 0.33325780922233295" fill="red" stroke="none" /><path d="M 79.03285615573316 98.82574320788736 l -16.98918982378742 -0.9514730137423242 a38.01581240389544,38.01581240389544 0 0,0 0.042214584654568586,-0.6530409399887239 l 16.970294648128437 1.2437730179840598" fill="red" stroke="none" /><path d="M 79.08570108090925 98.10471618934814 l -34.397643450322114 -3.117163860389376 a55.53859559200411,55.53859559200411 0 0,0 0.09447610810089006,-0.9513615154645212 l 34.338890216539 3.708800906558327" fill="red" stroke="none" /><path d="M 79.12142395522702 97.74499172005258 l -14.395623011495964 -1.5548114496080343 a35.479343926191696,35.479343926191696 0 0,0 0.07080603712433123,-0.6066228855630911 l 14.366726621368045 1.802378073495987" fill="red" stroke="none" /><path d="M 79.16333360222342 97.38593545837743 l -14.74373037525913 -1.849675089548922 a35.859302921578674,35.859302921578674 0 0,0 0.08210755978412428,-0.6117966906261338 l 14.709706816417171 2.1031901222397154" fill="red" stroke="none" /><path d="M 79.21141760316559 97.0276538004421 l -13.391107599806073 -1.9146571431544823 a34.52729369554075,34.52729369554075 0 0,0 0.08918581897492481,-0.5876231149278661 l 13.356165887391848 2.1448793704744404" fill="red" stroke="none" /><path d="M 79.26566170972629 96.67025291283419 l -15.405687742481177 -2.474014032575889 a36.60307534597642,36.60307534597642 0 0,0 0.10525674203707308,-0.621231249745359 l 15.360819138923882 2.738831070637076" fill="red" stroke="none" /><path d="M 79.32604984820605 96.31383870115002 l -8.938224988743308 -1.5936837804100266 a30.079190158892878,30.079190158892878 0 0,0 0.09527121708554163,-0.5089426512203181 l 8.909468047747904 1.7473045090929173" fill="red" stroke="none" /><path d="M 79.3925641242962 95.95851677861259 l -33.034744271172436 -6.478698538723832 a54.664044079959,54.664044079959 0 0,0 0.1890353032962093,-0.921803273393825 l 32.91832967196123 7.04637746828106" fill="red" stroke="none" /><path d="M 79.62865764111835 94.90015583598534 l -9.670905839464986 -2.421053646699319 a30.969349051768326,30.969349051768326 0 0,0 0.13391097588044681,-0.5160136157923163 l 9.62779853171423 2.587163688040499" fill="red" stroke="none" /><path d="M 79.71946130924805 94.55025226153421 l -17.42660640087704 -4.682844488032275 a39.04482316760635,39.04482316760635 0 0,0 0.1800026392153022,-0.6475652652039757 l 17.343416991095378 4.982121056655194" fill="red" stroke="none" /><path d="M 79.81627453868168 94.20196356495316 l -9.43131384767342 -2.709266999492802 a30.812737057919016,30.812737057919016 0 0,0 0.15082703159055463,-0.5085137703895538 l 9.383280918971158 2.871210156628895" fill="red" stroke="none" /><path d="M 79.91906864156998 93.8553929516997 l -8.757488696217422 -2.679722658660337 a30.158303434136343,30.158303434136343 0 0,0 0.1561690532055654,-0.4950985757038189 l 8.710064159243652 2.8300714007905703" fill="red" stroke="none" /><path d="M 80.02781315780177 93.51064311812611 l -10.548099088775526 -3.4272851517595377 a32.090927729369554,32.090927729369554 0 0,0 0.1752206008963802,-0.5238872941811321 l 10.487541194107374 3.608345548862992" fill="red" stroke="none" /><path d="M 80.14247586403 93.16781622104843 l -59.572572407909995 -20.496551336854708 a84.0,84.0 0 0,0 0.4821876767607618,-1.3632094942935558 l 59.210931650339425 21.518958457574875" fill="red" stroke="none" /><path d="M 80.38941819471856 92.48833698450439 l -8.854916474301735 -3.391798838288501 a30.482291132752437,30.482291132752437 0 0,0 0.1919026429587621,-0.4883712945081716 l 8.795220281461281 3.543719137692436" fill="red" stroke="none" /><path d="M 80.52162464483688 92.15188598940014 l -9.24199490839288 -3.7237309787864095 a30.963967196309586,30.963967196309586 0 0,0 0.20344552195513543,-0.4926594685684057 l 9.176527699551544 3.882265017808127" fill="red" stroke="none" /><path d="M 80.65960295795068 91.81776055985345 l -8.393395271913466 -3.5509493254598055 a30.11363403382881,30.11363403382881 0 0,0 0.20607661766946803,-0.4756532461251006 l 8.331027944401317 3.6949017161715054" fill="red" stroke="none" /><path d="M 80.803312248108 91.48605970444005 l -16.478058932902893 -7.308198776511653 a39.02598667350077,39.02598667350077 0 0,0 0.27763771367810147,-0.6117378998161473 l 16.34981890226144 7.590758685169872" fill="red" stroke="none" /><path d="M 80.95270993114464 91.15688171328213 l -8.25301212696406 -3.8316402069077165 a30.099103024090212,30.099103024090212 0 0,0 0.22221996650467357,-0.4680519226158882 l 8.185833966617635 3.973134545164137" fill="red" stroke="none" /><path d="M 81.10775173730289 90.83032412892265 l -5.917021169103571 -2.8719274428609984 a27.577165556125063,27.577165556125063 0 0,0 0.21095216751035817,-0.4252666972251336 l 5.8667089886398 2.9733537285850935" fill="red" stroke="none" /><path d="M 81.26839172434947 90.50648371742162 l -27.971638928898123 -14.176530157695463 a52.358995386981036,52.358995386981036 0 0,0 0.4143605296442549,-0.8004126549650559 l 27.723468966093755 14.655915534920855" fill="red" stroke="none" /><path d="M 81.43458229118936 90.18545643968196 l -8.79311852066964 -4.6484515514668825 a30.946207073295746,30.946207073295746 0 0,0 0.2530101483044247,-0.46878937922602476 l 8.711800273146745 4.79912191402538" fill="red" stroke="none" /><line stroke="#e1ed5e" stroke-width="0.3" x1="26.266209847984243" x2="21.928928074336255" y1="57.711370442889674" y2="55.22380399835377" /><path d="M 25.398753493254645 57.213857153982495 a86.0,86.0 0 0,1 29.58750427330803,-30.492523968695096" fill="none" id="id11" stroke="none" /><text fill="#e1ed5e" style="font-size:6.75px; font-family:Arial;" text-anchor="middle"><textPath startOffset="21.46611528233685" xlink:href="#id11">November</textPath></text><path d="M 81.78341655067845 89.55222093294921 l -16.50743655009125 -9.467529985439489 a40.02970271655562,40.02970271655562 0 0,0 0.34795404593981805,-0.5947662554723189 l 16.342022829681106 9.7502756532657" fill="red" stroke="none" /><path d="M 81.96595687620814 89.24020034530311 l -7.698900316661323 -4.5934582944116045 a29.965094823167604,29.965094823167604 0 0,0 0.26809371048231706,-0.44067556953809606 l 7.618690807892788 4.725301637156775" fill="red" stroke="none" /><path d="M 82.15384107792192 88.93136811851018 l -17.23970052303463 -10.692491290130121 a41.286365966171196,41.286365966171196 0 0,0 0.3797803121882937,-0.6007212494426364 l 17.053092614600374 10.987660187286972" fill="red" stroke="none" /><path d="M 82.7489923806493 88.02491185347247 l -15.583380742359655 -10.817475832619223 a39.96996412096361,39.96996412096361 0 0,0 0.3972012904255656,-0.5618130567237034 l 15.39486683213021 11.084115389674713" fill="red" stroke="none" /><path d="M 82.95767976084542 87.72973835380427 l -7.431010675268481 -5.350236587605696 a30.15668887749872,30.15668887749872 0 0,0 0.3069338998055117,-0.41865749439546723 l 7.337814162949336 5.477356525672664" fill="red" stroke="none" /><path d="M 83.17141714833178 87.43820079747576 l -7.5167957591421155 -5.610958439282288 a30.38003587903639,30.38003587903639 0 0,0 0.31642118017143206,-0.4163731826317768 l 7.419098638746575 5.739516397795091" fill="red" stroke="none" /><path d="M 83.39014120810768 87.1503855733568 l -8.48243608780211 -6.56212882316041 a31.72442337262942,31.72442337262942 0 0,0 0.3378589444189439,-0.42904654929906966 l 8.368223062789196 6.707167766412527" fill="red" stroke="none" /><path d="M 83.6137871275137 86.86637796730984 l -7.873949035343876 -6.311004949075871 a31.090978985135827,31.090978985135827 0 0,0 0.33830169432974894,-0.41471787600566606 l 7.764148848937735 6.445606994689619" fill="red" stroke="none" /><path d="M 84.31358615837235 86.03803664274999 l -6.681399232389844 -5.946894694964002 a29.9446437724244,29.9446437724244 0 0,0 0.3460122971840917,-0.38207542071557926 l 6.578043294589707 6.061022902949137" fill="red" stroke="none" /><path d="M 84.5562425177563 85.77008943001954 l -6.921985510173246 -6.377931982531734 a30.412327011788825,30.412327011788825 0 0,0 0.3580438596302282,-0.38193622556735685 l 6.811174328572562 6.496137624977142" fill="red" stroke="none" /><path d="M 84.80347519578584 85.50635884689758 l -6.81234269285787 -6.497251949002241 a30.41394156842645,30.41394156842645 0 0,0 0.36458457021038887,-0.3757364474902976 l 6.699493858944362 6.613552592042661" fill="red" stroke="none" /><path d="M 85.31137513191541 84.99185889309783 l -6.061786936206207 -6.193646751523471 a29.666401845207588,29.666401845207588 0 0,0 0.3680283229716083,-0.35404295511022527 l 5.954275369622171 6.29707279339601" fill="red" stroke="none" /><path d="M 86.10567301691215 84.25364557470407 l -4.898978745087714 -5.5519821676889185 a28.404356740133267,28.404356740133267 0 0,0 0.36940028434189104,-0.3203402864504382 l 4.8026846620990495 5.635487447559037" fill="red" stroke="none" /><path d="M 86.37877921826538 84.01681056812374 l -6.446516765153593 -7.564365946654508 a30.93867247565351,30.93867247565351 0 0,0 0.4083057091960949,-0.34194428920814735 l 6.315353518998388 7.674211393256468" fill="red" stroke="none" /><path d="M 86.93701828274178 83.55741782278169 l -7.414631447304853 -9.332914148155595 a32.91973347001538,32.91973347001538 0 0,0 0.4467167777039532,-0.34866953070204953 l 7.252882114441474 9.459162068080866" fill="red" stroke="none" /><path d="M 87.22198572758235 83.33499621200491 l -5.652519332552567 -7.371979251270715 a30.289620707329576,30.289620707329576 0 0,0 0.41648783240194914,-0.3136900006668635 l 5.524785346392227 7.468185841443432" fill="red" stroke="none" /><path d="M 87.51073957382395 83.11751280151077 l -5.028031574443861 -6.7966937827029055 a29.454356740133264,29.454356740133264 0 0,0 0.41019355154469195,-0.2980230599107787 l 4.910292706545388 6.882236077430352" fill="red" stroke="none" /><path d="M 88.09926311788651 82.69761687909137 l -5.231200384469773 -7.605599059195919 a30.23095848282932,30.23095848282932 0 0,0 0.43128824976411745,-0.2912077514699991 l 5.099507440299116 7.694518722964584" fill="red" stroke="none" /><line stroke="#e1ed5e" stroke-width="0.3" x1="56.762969772571076" x2="54.21961505331055" y1="26.818313649435495" y2="22.513508569990535" /><path d="M 56.25429882871897 25.957352633546506 a86.0,86.0 0 0,1 42.265352541879196,-11.944610805530505" fill="none" id="id12" stroke="none" /><text fill="#e1ed5e" style="font-size:6.75px; font-family:Arial;" text-anchor="middle"><textPath startOffset="22.20632615414155" xlink:href="#id12">December</textPath></text><path d="M 89.3179101791058 81.91981866633112 l -5.103695554354963 -8.638360343505608 a31.03339313172732,31.03339313172732 0 0,0 0.4622546082996475,-0.2677677055975835 l 4.954244213589996 8.72493220649324" fill="red" stroke="none" /><path d="M 89.63071344664047 81.73862282372117 l -15.874149981161745 -27.956006294849203 a53.148513582778065,53.148513582778065 0 0,0 0.7994445305917514,-0.4448900157340844 l 15.390581361497947 28.225111708143473" fill="red" stroke="none" /><path d="M 89.94658935756843 81.56283822128135 l -7.42849655670392 -13.623276483957351 a36.51696565863659,36.51696565863659 0 0,0 0.554457875524383,-0.2961721950128984 l 7.192893634651232 13.749127405471999" fill="red" stroke="none" /><path d="M 90.26544431104013 81.39251694778311 l -3.998602218930007 -7.643278789362696 a29.626037929267042,29.626037929267042 0 0,0 0.4538984284780557,-0.2325044045770685 l 3.8664433028631877 7.710975719252269" fill="red" stroke="none" /><path d="M 90.58718382345135 81.22770947309562 l -3.6293136693022623 -7.2380602505709 a29.097001537672988,29.097001537672988 0 0,0 0.4496577639436525,-0.22064511192492145 l 3.5041846383481836 7.2994605226306515" fill="red" stroke="none" /><path d="M 90.91171255644093 81.06846463323043 l -8.567958531490616 -17.84765402362853 a40.79769349051769,40.79769349051769 0 0,0 0.6357092494675008,-0.29847401655539685 l 8.259471070723507 17.992493022823933" fill="red" stroke="none" /><path d="M 91.23893434514133 80.91482961587045 l -3.702459575823155 -8.065465392985553 a29.874679651460788,29.874679651460788 0 0,0 0.46920016924421715,-0.210516439083226 l 3.5630772881121637 8.128002162585307" fill="red" stroke="none" /><path d="M 92.57280143429618 80.3572730644239 l -3.2000528520403004 -8.463186192744889 a30.04797539723219,30.04797539723219 0 0,0 0.48537163473772177,-0.17876646929362916 l 3.053898891530009 8.51701592984484" fill="red" stroke="none" /><path d="M 92.91201910852362 80.23233633223022 l -2.918206381895645 -8.138583209193275 a29.645950794464376,29.645950794464376 0 0,0 0.48184269108595407,-0.16810545369064128 l 2.777681686746406 8.187609516056126" fill="red" stroke="none" /><path d="M 93.25333710446033 80.11325718540243 l -2.9910436040476864 -8.81652393515437 a30.310071758072784,30.310071758072784 0 0,0 0.49552229969579065,-0.1633659114157921 l 2.8388384821094865 8.866703570829396" fill="red" stroke="none" /><path d="M 97.47563105711357 79.15227682838746 l -4.317693061205538 -35.6580482950646 a56.918503331624805,56.918503331624805 0 0,0 0.9736676944339371,-0.10940291032674278 l 3.7032586632618827 35.72708715886195" fill="red" stroke="none" /></svg>